<?xml version="1.0" encoding="UTF-8"?>
<svg xmlns="http://www.w3.org/2000/svg" id="Icons" viewBox="0 0 60 60" width="512" height="512"><path d="M42,13a10.077,10.077,0,0,0-4.772,1.124,15.646,15.646,0,0,1-4.286,1.492A1.951,1.951,0,0,1,31.07,17H28.95a1.977,1.977,0,0,1-1.864-1.378,15.653,15.653,0,0,1-4.31-1.5A10.083,10.083,0,0,0,18,13C10.71,13,5,20.468,5,30,5,48.029,15.052,58,22,58a4.87,4.87,0,0,0,2.29-.527,12.636,12.636,0,0,1,11.413,0A4.872,4.872,0,0,0,38,58c6.948,0,17-9.971,17-28C55,20.468,49.29,13,42,13ZM18,18c-3.891,0-7.184,4.169-8.01,10.137A1,1,0,0,1,9,29a.925.925,0,0,1-.138-.01,1,1,0,0,1-.853-1.127C8.976,20.878,13.084,16,18,16a1,1,0,0,1,0,2Z"/><path d="M42.438,5.641a9.233,9.233,0,0,1,1.9-1.717A9.437,9.437,0,0,0,38.917,2c-.238,0-.48.011-.725.035A3.46,3.46,0,0,0,35,5.4a2.575,2.575,0,0,0,.889,1.875,3.106,3.106,0,0,0,2.366.707A5.7,5.7,0,0,0,42.438,5.641Z"/><path d="M33.839,7.945a4.5,4.5,0,0,1-.758-1.9A12.416,12.416,0,0,0,31.629,7.1a1,1,0,0,1-1.619-.521A19.53,19.53,0,0,0,28.321,2L26.645,3.233c.817,1.688,2.2,5.412,2.335,11.777L31.07,15c-.049-1.167-.115-2.312-.225-3.378a1.021,1.021,0,0,1,.054-.442A7.332,7.332,0,0,1,33.839,7.945Z"/></svg>
