<svg id="Icons" height="512" viewBox="0 0 60 60" width="512" xmlns="http://www.w3.org/2000/svg"><path d="m47 34.187a3.366 3.366 0 0 0 -3-2.187h-28a3.366 3.366 0 0 0 -3 2.187v7.813h34z"/><path d="m8 42h3v-14a2 2 0 0 0 -4 0v13a1 1 0 0 0 1 1z"/><path d="m53 41v-13a2 2 0 0 0 -4 0v14h3a1 1 0 0 0 1-1z"/><path d="m50 58v-14h-2-1.75l1.75 14z"/><path d="m43 4.415c-.708-.577-3.691-2.415-13-2.415s-12.292 1.838-13 2.415v25.585h26zm-3 22.585h-20a1 1 0 0 1 0-2h20a1 1 0 0 1 0 2zm0-6h-20a1 1 0 0 1 0-2h20a1 1 0 0 1 0 2zm0-6h-20a1 1 0 0 1 0-2h20a1 1 0 0 1 0 2zm0-6h-20a1 1 0 0 1 0-2h20a1 1 0 0 1 0 2z"/><path d="m13 31a4.734 4.734 0 0 1 2-.9v-26.6a1.5 1.5 0 1 0 -3 0v21.882a3.962 3.962 0 0 1 1 2.618z"/><path d="m10 58h2l1.75-14h-1.75-2z"/><path d="m47 28a3.962 3.962 0 0 1 1-2.618v-21.882a1.5 1.5 0 0 0 -3 0v26.6a4.734 4.734 0 0 1 2 .9z"/></svg>