<svg id="Icons" height="512" viewBox="0 0 60 60" width="512" xmlns="http://www.w3.org/2000/svg"><path d="m4 52.507v-5.176c0-.065.015-.127.018-.191-1.137.328-1.476.431-1.56.459a.775.775 0 0 0 -.458.741v2.16a.868.868 0 0 0 .2.563 8.037 8.037 0 0 0 1.8 1.444z"/><path d="m52.4 12a30.154 30.154 0 0 1 -2.335-9.562.472.472 0 0 0 -.473-.438h-1.461a.473.473 0 0 0 -.384.187.461.461 0 0 0 -.083.406 28.265 28.265 0 0 1 .436 9.407z"/><path d="m53.747 14h-5.873c-3.645 25.607-21.474 31.02-35.874 31.02a30.6 30.6 0 0 0 -4.242.288 2.049 2.049 0 0 0 -1.758 2.023v6.139a2.006 2.006 0 0 0 1.059 1.8 26.209 26.209 0 0 0 11.941 2.73c37.12 0 39-26.79 39-32.16 0-8.74-3.476-11.362-4.253-11.84zm-3.789 9.287c-4.981 16.6-18.208 25.736-37.243 25.736a1 1 0 1 1 0-2c18.338 0 30.554-8.406 35.327-24.31a1 1 0 1 1 1.916.574z"/></svg>