<svg id="Icons" viewBox="0 0 60 60" xmlns="http://www.w3.org/2000/svg"><path d="m41.121 4.309c-4.76 1.134-11.459 3.728-18.631 9.591 3.379 2.798 7.658 3.656 12.17 4.555 5.679 1.131 11.55 2.301 16.552 7.303 3.668 3.668 5.223 7.925 5.84 11.457.615-2.303.947-4.72.947-7.215 0-11.489-6.958-21.379-16.879-25.691z"/><path d="m13.816 19.511c.66-.749 1.345-1.491 2.056-2.225l-6.352-6.352c-1.478 1.587-2.772 3.345-3.854 5.241 2.418.087 5.373.856 8.15 3.336z"/><path d="m20.416 34.271c1.073 5.386 2.183 10.955 6.755 15.528 4.962 4.96 11.145 5.672 14.548 5.621 2.71-1.255 5.187-2.928 7.347-4.94l-31.78-31.78c-.717.74-1.408 1.489-2.07 2.246 3.298 3.797 4.226 8.432 5.2 13.324z"/><path d="m30 58c2.49 0 4.903-.331 7.203-.944-3.529-.619-7.783-2.181-11.446-5.843-5.002-5.002-6.171-10.873-7.303-16.552-.899-4.512-1.756-8.79-4.554-12.169-5.951 7.278-8.504 14.056-9.592 18.628 4.311 9.922 14.202 16.88 25.691 16.88z"/><path d="m16.177 5.665c-1.897 1.082-3.655 2.376-5.243 3.855l6.351 6.351c.743-.721 1.484-1.408 2.222-2.058-2.477-2.775-3.242-5.73-3.331-8.147z"/><path d="m49.799 27.172c-4.573-4.573-10.143-5.683-15.528-6.756-4.894-.974-9.531-1.903-13.329-5.204-.744.653-1.492 1.347-2.243 2.074l31.781 31.781c2.012-2.16 3.685-4.636 4.94-7.346.044-3.393-.66-9.587-5.621-14.548z"/><path d="m12.514 21.031c-2.77-2.468-5.704-2.951-7.889-2.85-1.68 3.593-2.625 7.597-2.625 11.819 0 2.732.4 5.371 1.133 7.869 1.45-4.601 4.201-10.56 9.38-16.838z"/><path d="m30 2c-4.222 0-8.226.945-11.819 2.625-.101 2.194.385 5.141 2.85 7.889 6.229-5.137 12.143-7.902 16.845-9.379-2.5-.734-5.141-1.135-7.875-1.135z"/></svg>