<?xml version="1.0" encoding="UTF-8"?>
<svg xmlns="http://www.w3.org/2000/svg" id="Icons" viewBox="0 0 60 60" width="512" height="512"><path d="M34.83,4a3.854,3.854,0,0,1,2.707,1.123c.34.34.7.735,1.238.562a.884.884,0,0,0,.615-.845.942.942,0,0,0-.062-.337A3.889,3.889,0,0,0,37.6,2.729,5.52,5.52,0,0,0,35,2a5.906,5.906,0,0,0-4.21,1.784A5.911,5.911,0,0,0,29,8a12.3,12.3,0,0,1-1.059,5.178,12,12,0,0,1,4.118,0A12.3,12.3,0,0,1,31,8,3.789,3.789,0,0,1,34.83,4Z"/><path d="M48,15a9.911,9.911,0,0,0-7.477,3.377,12.871,12.871,0,0,1,1.74,3.29,1,1,0,0,1-.611,1.276,1.018,1.018,0,0,1-.333.057,1,1,0,0,1-.943-.667,10.9,10.9,0,0,0-1.9-3.354h0a11.007,11.007,0,0,0-16.942,0h0a10.9,10.9,0,0,0-1.9,3.354,1,1,0,0,1-.943.667,1.018,1.018,0,0,1-.333-.057,1,1,0,0,1-.611-1.276,12.871,12.871,0,0,1,1.74-3.29A9.911,9.911,0,0,0,12,15,10.011,10.011,0,0,0,2,25c0,20.471,9.712,33,15,33a6.075,6.075,0,0,0,4.2-1.428,13,13,0,0,1-2.033-2.379,1,1,0,0,1,1.666-1.107,11.023,11.023,0,0,0,2.438,2.623,11.028,11.028,0,0,0,13.458,0,11.023,11.023,0,0,0,2.438-2.623,1,1,0,0,1,1.666,1.107A13,13,0,0,1,38.8,56.572,6.075,6.075,0,0,0,43,58c5.288,0,15-12.529,15-33A10.011,10.011,0,0,0,48,15Z"/></svg>
