<svg height="511pt" viewBox="0 0 511.5679 511" width="511pt" xmlns="http://www.w3.org/2000/svg"><path d="m0 164.222656c.296875.097656.605469.140625.914062.128906h65.710938c1.34375-2.449218 2.878906-4.78125 4.304688-7.183593 1.335937-2.242188 2.617187-4.5 4.015624-6.695313 2.128907-3.328125 4.414063-6.546875 6.699219-9.761718 1.410157-1.976563 2.742188-3.996094 4.199219-5.9375 2.695312-3.574219 5.558594-7 8.445312-10.421876 1.21875-1.445312 2.351563-2.953124 3.601563-4.378906 4.21875-4.773437 8.605469-9.378906 13.160156-13.824218.675781-.65625 1.40625-1.242188 2.082031-1.882813 3.933594-3.738281 7.945313-7.386719 12.113282-10.871094 1.703125-1.417969 3.496094-2.742187 5.242187-4.078125 3.253907-2.570312 6.5-5.148437 9.882813-7.550781 2.082031-1.472656 4.242187-2.824219 6.398437-4.242187 3.183594-2.113282 6.355469-4.234376 9.628907-6.199219 2.3125-1.390625 4.691406-2.660157 7.058593-3.976563 2.367188-1.316406 4.441407-2.617187 6.738281-3.804687l-4.40625-61.558594c.011719-.457031-.140624-.90625-.429687-1.261719l-30.90625 36.671875c-1.636719 1.898438-3.984375 3.039063-6.488281 3.15625-2.503906.09375-4.9375-.824219-6.757813-2.542969l-39.285156-37.722656c-.089844.28125-.132813.574219-.128906.867188v62.628906c0 4.695312-3.558594 8.628906-8.230469 9.097656l-72.5 7.039063c-.164062.019531-.328125.046875-.488281.082031l36.253906 31.761719c1.871094 1.640625 2.992187 3.972656 3.109375 6.460937.113281 2.484375-.792969 4.910156-2.507812 6.714844zm0 0"/><path d="m410.222656 184.027344c-2.261718-.875-4.65625-1.34375-7.078125-1.390625-2.433593-.042969-4.828125.617187-6.894531 1.902343-3.925781 2.941407-6.285156 7.523438-6.398438 12.425782-.316406 7.273437 1.675782 14.460937 5.6875 20.535156 7.960938 12.554688 21.75 18.667969 30.117188 13.367188 3.925781-2.941407 6.285156-7.527344 6.398438-12.433594.378906-14.835938-8.25-28.429688-21.832032-34.40625zm0 0"/><path d="m407.324219 317.761719c-1.117188-.222657-2.253907-.335938-3.394531-.339844-5.660157.234375-11.039063 2.535156-15.113282 6.472656-6.984375 6.558594-11.6875 15.179688-13.410156 24.605469-3.960938 19.390625 3.949219 38.078125 17.269531 40.804688 13.460938 2.675781 27.960938-11.367188 31.917969-30.738282 2.113281-9.351562 1.171875-19.132812-2.6875-27.90625-2.53125-6.375-7.945312-11.164062-14.582031-12.898437zm0 0"/><path d="m282.933594 54.636719c-34.363282-.117188-68.304688 7.609375-99.234375 22.585937-33.148438 16.109375-61.945313 39.9375-83.976563 69.484375-63.242187 84.957031-59.816406 202.238281 8.273438 283.363281 68.09375 81.121094 183.003906 104.824219 277.640625 57.269532 94.636719-47.554688 144.191406-153.90625 119.730469-256.957032-24.457032-103.050781-116.519532-175.789062-222.433594-175.746093zm-149.621094 363.175781c-3.902344 3.199219-9.660156 2.636719-12.863281-1.261719-59.988281-72.917969-63.898438-176.914062-9.554688-254.128906 1.824219-2.800781 5.035157-4.382813 8.371094-4.121094 3.335937.257813 6.261719 2.320313 7.632813 5.375 1.367187 3.050781.960937 6.609375-1.066407 9.269531-49.589843 70.496094-46.015625 165.425782 8.734375 231.992188 1.539063 1.875 2.273438 4.28125 2.039063 6.695312-.234375 2.414063-1.417969 4.636719-3.292969 6.179688zm5.046875-274.617188c-1.664063-1.765624-2.558594-4.117187-2.488281-6.542968.074218-2.425782 1.105468-4.722656 2.871094-6.382813 3.367187-3.164062 6.820312-6.210937 10.367187-9.144531 2.507813-2.175781 5.996094-2.820312 9.113281-1.6875 3.121094 1.132812 5.378906 3.867188 5.90625 7.144531.527344 3.273438-.761718 6.578125-3.371094 8.632813-3.253906 2.6875-6.398437 5.484375-9.472656 8.375-1.761718 1.664062-4.117187 2.558594-6.542968 2.484375-2.421876-.070313-4.71875-1.101563-6.382813-2.867188zm33.085937 307.601563c-1.433593 1.960937-3.589843 3.269531-5.992187 3.636719-2.402344.367187-4.851563-.238282-6.804687-1.679688-3.09375-2.265625-6.117188-4.621094-9.082032-7.058594-2.519531-2.078124-3.742187-5.339843-3.203125-8.5625.539063-3.222656 2.753907-5.914062 5.8125-7.058593 3.0625-1.144531 6.5-.570313 9.023438 1.503906 2.6875 2.21875 5.429687 4.355469 8.226562 6.402344 1.976563 1.425781 3.300781 3.582031 3.679688 5.988281.378906 2.40625-.21875 4.863281-1.660157 6.828125zm271.058594-88.566406c-5.484375 26.671875-25.472656 45.714843-46.535156 45.714843-2.335938 0-4.664062-.242187-6.949219-.710937-23.441406-4.792969-37.578125-32.777344-31.523437-62.382813 2.523437-13.300781 9.253906-25.441406 19.199218-34.625 8.957032-9.011718 21.851563-12.90625 34.304688-10.359374 12.449219 2.546874 22.777344 11.195312 27.472656 23.003906 5.53125 12.347656 6.945313 26.148437 4.03125 39.359375zm-7.074218-115.929688c-4.960938 3.117188-10.710938 4.742188-16.566407 4.691407-16.097656-.886719-30.671875-9.789063-38.8125-23.699219-6.148437-9.40625-9.117187-20.535157-8.464843-31.753907.191406-10.753906 5.769531-20.691406 14.851562-26.449218 9.082031-5.761719 20.449219-6.574219 30.257812-2.167969 21.1875 8.855469 34.601563 29.992187 33.589844 52.9375-.492187 10.667969-6 20.472656-14.855468 26.441406zm0 0"/></svg>