<svg id="Capa_1" enable-background="new 0 0 612.127 612.127" height="512" viewBox="0 0 612.127 612.127" width="512" xmlns="http://www.w3.org/2000/svg"><g><path d="m423.876 546.542h-309.102c-18.111 0-32.793 14.682-32.793 32.793s14.682 32.792 32.793 32.792h371.649c6.037 0 10.931-4.894 10.931-10.931v-43.723h-54.654c-7.776-.023-14.95-4.189-18.824-10.931zm-90.485 43.724h-174.894c-6.037 0-10.931-4.894-10.931-10.931s4.894-10.931 10.931-10.931h174.893c6.037 0 10.931 4.894 10.931 10.931.001 6.037-4.893 10.931-10.93 10.931zm98.377 0h-54.654c-6.037 0-10.931-4.894-10.931-10.931s4.894-10.931 10.931-10.931h54.654c6.037 0 10.931 4.894 10.931 10.931s-4.894 10.931-10.931 10.931z"/><path d="m180.359 34.673c.001 2.899 1.153 5.679 3.203 7.728l18.659 18.659v-21.654c.008-6.219 1.795-12.306 5.148-17.544h-27.01z"/><path d="m442.699 518.275v17.336h76.516c6.037 0 10.931-4.894 10.931-10.931v-76.516h-17.336z"/><path d="m508.284 218.617c0 6.037-4.894 10.931-10.931 10.931s-10.931 4.894-10.931 10.931v54.654c0 6.037 4.894 10.931 10.931 10.931s10.931 4.894 10.931 10.931 4.894 10.931 10.931 10.931h10.931v-120.24h-10.931c-6.037 0-10.931 4.894-10.931 10.931z"/><path d="m103.843 12.942c-13.055 4.616-21.804 16.934-21.862 30.781v492.172c6.447-4.946 13.915-8.393 21.862-10.089z"/><path d="m519.215 0h-76.516v17.336l70.11 70.11h17.336v-76.515c.001-6.037-4.893-10.931-10.93-10.931z"/><path d="m125.705 10.931v513.75h43.723v-54.654c0-6.037 4.894-10.931 10.931-10.931s10.931 4.894 10.931 10.931v54.654h21.862v-21.862c0-6.037 4.894-10.931 10.931-10.931s10.931 4.894 10.931 10.931v21.862h98.378v-54.654c0-6.037 4.894-10.931 10.931-10.931s10.931 4.894 10.931 10.931v54.654h65.585v-6.405c.019-5.794 2.32-11.347 6.405-15.456l70.11-70.11c4.109-4.085 9.662-6.386 15.456-6.405h6.405v-76.516c-14.444.001-27.189-9.449-31.382-23.272-13.822-4.194-23.273-16.938-23.272-31.382v-54.654c-.001-14.445 9.449-27.189 23.272-31.382 4.194-13.822 16.938-23.273 31.382-23.272v-76.516h-6.405c-5.794-.019-11.347-2.32-15.456-6.405l-70.11-70.11c-4.085-4.109-6.386-9.662-6.405-15.456v-6.405h-172.884c-4.43-.014-8.57 2.2-11.018 5.892l-11.018 16.523c-1.199 1.792-1.839 3.9-1.836 6.056v29.459c-.258 10.386-8.887 18.597-19.274 18.339-4.687-.117-9.161-1.979-12.546-5.222l-24.157-24.157c-6.165-6.125-9.624-14.461-9.608-23.152v-23.742zm54.654 173.724c-.005-10.429 7.391-19.394 17.631-21.37 12.762-2.662 22.736-12.631 25.403-25.392 1.983-10.243 10.947-17.645 21.381-17.653h133.509c10.426.003 19.386 7.396 21.37 17.631 2.674 12.766 12.648 22.74 25.414 25.414 10.24 1.976 17.637 10.941 17.631 21.37v67.924c-.003 10.426-7.396 19.386-17.631 21.37-12.766 2.674-22.74 12.648-25.414 25.414-1.976 10.24-10.941 17.637-21.37 17.631h-133.509c-10.429.005-19.394-7.391-21.37-17.631-2.662-12.762-12.631-22.736-25.392-25.403-10.243-1.983-17.645-10.947-17.653-21.381z"/><path d="m244.851 294.914 133.433.219c4.297-21.404 20.951-38.18 42.324-42.63l.23-67.771c-11.632-2.466-22.168-8.596-30.06-17.489-6.271-7.079-10.602-15.661-12.57-24.911l-133.433-.23c-1.864 9.365-6.175 18.07-12.494 25.228-7.816 8.86-18.281 14.963-29.841 17.402l-.219 67.848c9.365 1.864 18.07 6.175 25.228 12.494 8.86 7.815 14.963 18.28 17.402 29.84z"/></g></svg>