<svg id="Icons" height="512" viewBox="0 0 60 60" width="512" xmlns="http://www.w3.org/2000/svg"><path d="m8 36.6a24.363 24.363 0 0 0 10.854 20.5 5.948 5.948 0 0 0 3.215.9h15.862a5.948 5.948 0 0 0 3.215-.9 24.363 24.363 0 0 0 10.854-20.5.594.594 0 0 0 -.586-.6h-42.828a.594.594 0 0 0 -.586.6z"/><path d="m8 19.6a24.757 24.757 0 0 0 4.52 14.4h34.96a24.757 24.757 0 0 0 4.52-14.4.6.6 0 0 0 -.59-.6h-42.82a.6.6 0 0 0 -.59.6z"/><path d="m25 10a1 1 0 0 0 1-1v-7h-10v9a1 1 0 0 0 2 0v-4a3 3 0 0 1 6 0v2a1 1 0 0 0 1 1z"/><path d="m8.59 2a.6.6 0 0 0 -.59.6 24.757 24.757 0 0 0 4.52 14.4h34.96a24.757 24.757 0 0 0 4.52-14.4.6.6 0 0 0 -.59-.6h-23.41v7a3 3 0 0 1 -6 0v-2a1 1 0 0 0 -2 0v4a3 3 0 0 1 -6 0v-9z"/></svg>