<svg id="Icons" viewBox="0 0 60 60" xmlns="http://www.w3.org/2000/svg"><path d="m9 26c.489 0 .997.354 1.076.837.399 2.412 2.47 4.163 4.924 4.163 1.796 0 3.463-.974 4.35-2.542.203-.361.606-.562 1.021-.496.21.032.42.038.629.038 1.893 0 3.632-.865 4.772-2.373.287-.379.798-.502 1.224-.302 1.902.896 4.105.896 6.008 0 .429-.201.938-.075 1.224.302 1.141 1.508 2.88 2.373 4.772 2.373.209 0 .419-.006.629-.038.051-.008.102-.012.151-.012.356 0 .691.191.87.508.887 1.568 2.554 2.542 4.35 2.542 2.454 0 4.524-1.751 4.924-4.163.079-.483.497-.837.986-.837 2.847 0 5.09-2.243 5.09-5 0-1.358-.557-2.664-1.527-3.584-.336-.317-.409-.823-.18-1.224.463-.805.707-1.736.707-2.692 0-2.951-2.308-5.363-5.253-5.491-.434-.019-.805-.314-.921-.732-.534-1.929-2.313-3.277-4.326-3.277-.558 0-1.098.101-1.603.3-.405.16-.861.041-1.138-.292-1.056-1.276-2.608-2.008-4.26-2.008-1.033 0-2.035.286-2.898.827-.3.189-.676.203-.99.042-2.201-1.137-5.021-1.137-7.223 0-.314.161-.69.146-.99-.042-.863-.541-1.865-.827-2.898-.827-1.651 0-3.204.732-4.26 2.008-.276.333-.732.453-1.138.292-.505-.199-1.045-.3-1.603-.3-2.013 0-3.792 1.348-4.326 3.277-.116.417-.487.713-.921.732-2.945.128-5.253 2.54-5.253 5.491 0 .956.244 1.887.707 2.692.229.4.156.906-.18 1.224-.971.92-1.527 2.227-1.527 3.584 0 2.757 2.243 5 5 5zm38-13c.553 0 1 .448 1 1s-.447 1-1 1c-2.206 0-4 1.794-4 4 0 .552-.447 1-1 1s-1-.448-1-1c0-3.309 2.691-6 6-6zm-18-6c3.309 0 6 2.691 6 6 0 .552-.447 1-1 1s-1-.448-1-1c0-2.206-1.794-4-4-4-.553 0-1-.448-1-1s.447-1 1-1zm-7 8c3.309 0 6 2.691 6 6 0 .552-.447 1-1 1s-1-.448-1-1c0-2.206-1.794-4-4-4-.553 0-1-.448-1-1s.447-1 1-1zm-6-4c.553 0 1 .448 1 1s-.447 1-1 1c-2.206 0-4 1.794-4 4 0 .552-.447 1-1 1s-1-.448-1-1c0-3.309 2.691-6 6-6z"/><path d="m21 30c-.078 0-.165 0-.259-.003-.327.47-.708.893-1.131 1.264 3.1 3.042 6.39 8.071 6.39 15.739v10c0 .552.448 1 1 1h6c.552 0 1-.448 1-1v-10c0-7.669 3.29-12.697 6.39-15.739-.423-.371-.804-.794-1.131-1.264-.094.003-.181.003-.259.003-.215 0-.428-.016-.64-.033-2.911 3.036-4.726 6.464-5.375 10.204-.084.482-.503.829-.984.829-.028 0-.058 0-.087-.004-.517-.044-.914-.477-.914-.996v-12.064c-.665.073-1.335.073-2 0v12.064c0 .52-.397.952-.914.996-.029.003-.059.004-.087.004-.481 0-.9-.347-.984-.829-.649-3.74-2.463-7.167-5.375-10.204-.212.017-.424.033-.64.033z"/></svg>