<svg id="Icons" height="512" viewBox="0 0 60 60" width="512" xmlns="http://www.w3.org/2000/svg"><path d="m30 2a27.912 27.912 0 0 0 -20.016 8.448c8.983-1.111 22.807-.713 32.071 9.45a30.992 30.992 0 0 1 12.284-3.715 28.014 28.014 0 0 0 -24.339-14.183z"/><path d="m55.338 18.1c-5.94.507-18.473 3.188-22.879 16.476a42.43 42.43 0 0 1 14.78 16.324 37.538 37.538 0 0 0 1.782-12.92c-.8-4.206-5-4.963-5.182-4.993a1 1 0 0 1 .318-1.974 8.972 8.972 0 0 1 4.6 2.391c-.163-1.642-.4-3.374-.737-5.222a1 1 0 0 1 1.966-.364 61.853 61.853 0 0 1 1.044 9.992l.006.03c0 .032-.006.061 0 .092 0 .125.007.253.008.377a14.508 14.508 0 0 0 1.973-5.473 1 1 0 0 1 1.972.328c-.843 5.063-3.062 7.5-4 8.327a38.213 38.213 0 0 1 -1.332 8.469 28 28 0 0 0 5.681-31.86z"/><path d="m40.331 20.971c-9.5-10.125-24.1-9.569-32.369-8.212a27.851 27.851 0 0 0 -5.931 16.022 45.161 45.161 0 0 1 7.769-.581c9.4-9.961 22.336-7.232 28.064-5.312a24.852 24.852 0 0 1 2.467-1.917z"/><path d="m30 58a27.886 27.886 0 0 0 7.194-.953 24.884 24.884 0 0 0 -6.242-5.161c-2.181 2.081-5.785 2.114-5.952 2.114a1 1 0 0 1 0-2 8.461 8.461 0 0 0 4.066-1.144c-1.193-.607-2.4-1.153-3.631-1.706-.965-.433-1.938-.872-2.92-1.345a15.514 15.514 0 0 1 -5.057.959 7.43 7.43 0 0 1 -4.019-.938 1 1 0 0 1 1.116-1.659c.058.034 1.819 1.076 5.38.306a34.2 34.2 0 0 1 -7.635-5.764 1 1 0 1 1 1.41-1.418 34.387 34.387 0 0 0 10.278 7 15.392 15.392 0 0 0 -.99-3.092 8.608 8.608 0 0 1 -.833-4.551 1.011 1.011 0 0 1 1.078-.916 1 1 0 0 1 .916 1.079 6.6 6.6 0 0 0 .688 3.624 17.237 17.237 0 0 1 1.327 4.855l.084.037c1.406.632 2.787 1.255 4.152 1.966a6.172 6.172 0 0 0 .5-4.229 1 1 0 0 1 1.919-.564 8.225 8.225 0 0 1 -.679 5.763 26.726 26.726 0 0 1 7.122 6.144 28.076 28.076 0 0 0 6.78-3.463 40.717 40.717 0 0 0 -15.3-17.095c-12.16-7.309-25.407-5.613-28.731-5.029a28.027 28.027 0 0 0 27.979 27.18z"/><path d="m12.55 28.3a42.879 42.879 0 0 1 18.15 5.213 25.986 25.986 0 0 1 5.523-9.056c-11.988-3.72-19.561.174-23.673 3.843z"/></svg>