<svg id="Icons" viewBox="0 0 60 60" xmlns="http://www.w3.org/2000/svg"><path d="m29.937 12.444c-.669.59-1.12 1.455-1.295 2.42.446-.033.898-.055 1.359-.055 2.766 0 5.284.606 7.266 1.643 1.078-.891 1.912-2.062 2.345-3.384.394-1.182.491-2.479.283-3.758-.06-.372-.347-.51-.434-.543-.115-.043-.344-.096-.555.074-.924.746-2.16 1.318-3.671 1.699-.365.09-.73.171-1.096.252-1.334.296-2.594.577-3.605 1.214-.205.123-.399.267-.597.438z"/><path d="m24.775 10.542c-1.521-.383-2.757-.956-3.684-1.704-.207-.165-.434-.115-.552-.071-.087.034-.374.172-.434.541-.208 1.281-.11 2.579.281 3.755.435 1.326 1.268 2.497 2.347 3.389 1.128-.591 2.431-1.039 3.855-1.316.127-1.416.677-2.74 1.563-3.731-.737-.26-1.532-.448-2.364-.632-.34-.075-.68-.15-1.014-.231z"/><path d="m25 25h-4.961c-.082 1.496-.031 3.172.15 5h4.811c.553 0 1 .448 1 1s-.447 1-1 1h-4.573c.223 1.58.535 3.255.928 5h3.645c.553 0 1 .447 1 1s-.447 1-1 1h-3.168c.303 1.197.639 2.42 1.015 3.67.133.442.271.886.414 1.33h3.738c.553 0 1 .447 1 1s-.447 1-1 1h-3.063c.614 1.749 1.276 3.449 1.939 5h3.124c.553 0 1 .447 1 1s-.447 1-1 1h-2.231c1.341 2.857 2.578 4.848 3.257 5.002.928-.219 3.007-4.148 4.92-9.002h-1.947c-.553 0-1-.447-1-1s.447-1 1-1h2.706c.519-1.421 1.011-2.883 1.446-4.33.068-.225.129-.446.195-.67h-2.347c-.553 0-1-.447-1-1s.447-1 1-1h2.907c.461-1.728.85-3.401 1.16-5h-4.067c-.553 0-1-.447-1-1s.447-1 1-1h4.421c.285-1.781.468-3.457.542-5h-4.964c-.553 0-1-.448-1-1s.447-1 1-1h4.996c-.026-1.685-.197-3.175-.531-4.416-.744-2.767-4.725-4.775-9.465-4.775s-8.721 2.008-9.465 4.776c-.118.439-.211.917-.29 1.416h4.755c.553 0 1 .448 1 1s-.447 1-1 1z"/><path d="m30.938 2.1c-.204-.152-.425-.098-.537-.05-.237.1-.4.316-.436.58-.198 1.516-.897 2.958-1.448 3.899-.192.327-.393.652-.594.978-.315.511-.615 1.005-.884 1.5 1.01.236 2.017.537 2.959 1.026 1.164-.607 2.451-.914 3.707-1.194.04-.009.079-.018.118-.027.102-1.396-.193-2.973-.598-3.845-.501-1.127-1.289-2.113-2.288-2.867z"/></svg>