<svg id="Icons" viewBox="0 0 60 60" xmlns="http://www.w3.org/2000/svg"><path d="m2.104 27.076c.227 1.798.806 3.661 1.587 5.025.155.016.306.035.476.044.296.018.584.027.873.037.861.029 1.751.059 2.645.291.449.119.861.286 1.247.478.036-.543-.018-1.094-.184-1.624-.337-1.094-1.155-2.068-2.189-2.609-.583-.309-1.246-.498-1.948-.697-.411-.117-.823-.235-1.227-.376-.472-.164-.898-.354-1.28-.569z"/><path d="m30.183 58.033.001.001h.002z"/><path d="m56.616 27.646c-.403.141-.815.259-1.226.376-.703.199-1.366.389-1.944.695-1.038.543-1.856 1.517-2.193 2.607-.166.532-.22 1.084-.184 1.627.384-.191.795-.358 1.242-.477.898-.233 1.788-.263 2.649-.292.288-.01.577-.02.865-.037.173-.009.326-.028.484-.045.779-1.36 1.357-3.214 1.585-5.023-.381.214-.808.403-1.277.567z"/><path d="m57.698 33.897c-.515.129-1.096.209-1.758.245-.299.019-.606.028-.913.039-.787.026-1.529.051-2.208.228-1.414.376-2.424 1.405-3.021 2.202-.367.486-.673 1.015-.953 1.566 1.792.12 3.011.609 4.101 1.047.304.122.605.24.913.351 1.884-1.485 3.253-3.513 3.84-5.678z"/><path d="m4.973 34.182c-.307-.011-.615-.021-.922-.04-.657-.035-1.235-.115-1.75-.244.587 2.165 1.957 4.193 3.84 5.678.308-.111.609-.229.913-.351 1.091-.438 2.309-.927 4.101-1.047-.279-.55-.585-1.078-.951-1.563-.599-.8-1.609-1.828-3.029-2.206-.673-.176-1.416-.2-2.202-.227z"/><path d="m6.925 24.308c-.58.377-.925 1.01-.925 1.692 0 .124.014.244.036.361.488.155.978.335 1.455.588 1.513.793 2.669 2.173 3.167 3.785.356 1.137.369 2.349.08 3.486.428.402.784.817 1.065 1.191.715.947 1.212 1.962 1.677 3.005 1.201.453 2.495 1.578 3.456 4.086 1.698 4.433 5.849 6.497 13.064 6.497s11.367-2.064 13.064-6.497c.961-2.509 2.255-3.634 3.456-4.086.466-1.044.964-2.061 1.679-3.007.28-.374.635-.787 1.062-1.188-.289-1.138-.276-2.35.081-3.49.496-1.608 1.652-2.989 3.17-3.783.475-.252.963-.431 1.451-.587.022-.117.036-.236.036-.361 0-.683-.346-1.315-.925-1.692-.441-.287-.585-.866-.328-1.326.168-.3.253-.63.253-.981 0-.683-.346-1.315-.925-1.692-.441-.287-.585-.866-.328-1.326.168-.3.253-.63.253-.981 0-.901-.607-1.692-1.477-1.923-.278-.074-.511-.265-.639-.521-.128-.258-.139-.559-.03-.824.096-.231.146-.484.146-.731 0-1.103-.897-2-2-2-.553 0-1-.447-1-1 0-1.103-.897-2-2-2-.553 0-1-.447-1-1 0-1.103-.897-2-2-2-.247 0-.5.05-.731.146-.265.108-.564.098-.824-.03-.257-.128-.447-.36-.521-.639-.23-.869-1.021-1.477-1.923-1.477-.247 0-.5.05-.731.146-.265.108-.565.097-.824-.03-.257-.128-.447-.36-.521-.639-.23-.869-1.021-1.477-1.923-1.477-.492 0-.965.182-1.329.512-.381.344-.961.344-1.342 0-.729-.66-1.93-.659-2.658 0-.381.346-.961.346-1.342 0-.364-.329-.836-.511-1.329-.511-.901 0-1.692.607-1.924 1.477-.074.278-.264.511-.522.639s-.559.139-.824.029c-.23-.095-.483-.145-.73-.145-.901 0-1.692.607-1.924 1.477-.074.278-.264.511-.522.639-.258.129-.559.138-.824.029-.23-.095-.483-.145-.73-.145-1.103 0-2 .897-2 2 0 .553-.448 1-1 1-1.103 0-2 .897-2 2 0 .553-.448 1-1 1-1.103 0-2 .897-2 2 0 .247.05.499.145.73.109.266.099.566-.029.824s-.361.448-.64.522c-.869.23-1.477 1.021-1.477 1.923 0 .351.085.682.253.982.256.459.113 1.039-.328 1.325-.58.377-.925 1.01-.925 1.692 0 .351.085.682.253.982.256.459.113 1.039-.328 1.325zm33.075 16.692c-.553 0-1-.447-1-1s-.448-1-1-1c-.206 0-.397.057-.555.164-.257.178-.583.223-.879.126-.296-.099-.53-.329-.632-.624-.205-.593-1.011-.829-1.489-.502-.257.178-.583.222-.879.126-.296-.099-.53-.329-.632-.624-.138-.398-.513-.666-.935-.666s-.797.268-.935.667c-.103.295-.336.525-.632.623-.297.097-.621.052-.879-.126-.477-.326-1.284-.092-1.489.503-.102.295-.335.525-.632.623-.298.097-.621.051-.879-.126-.157-.107-.348-.164-.554-.164-.551 0-1 .448-1 1s-.448 1-1 1-1-.447-1-1c0-1.654 1.346-3 3-3 .239 0 .474.027.7.08.705-.847 1.917-1.251 3-1 .557-.67 1.394-1.08 2.3-1.08s1.743.41 2.3 1.08c1.087-.252 2.296.153 3 1 .227-.053.461-.08.7-.08 1.654 0 3 1.346 3 3 0 .553-.447 1-1 1zm-5-27c.906 0 1.743.41 2.3 1.08.227-.053.461-.08.7-.08 1.306 0 2.419.838 2.83 2.005 1.702-.091 3.17 1.284 3.17 2.995 0 .057-.002.113-.005.17 1.167.411 2.005 1.524 2.005 2.83 0 .553-.447 1-1 1s-1-.447-1-1-.448-1-1-1c-.062 0-.117.008-.172.014-.373.044-.747-.135-.951-.456-.204-.32-.21-.729-.014-1.055.09-.148.137-.322.137-.503 0-.552-.448-1-1-1-.181 0-.354.047-.503.137-.326.195-.734.19-1.055-.014s-.497-.573-.456-.951c.006-.055.014-.11.014-.172 0-.552-.448-1-1-1-.206 0-.397.057-.555.164-.257.178-.583.222-.879.126-.296-.099-.53-.329-.632-.624-.138-.398-.513-.666-.935-.666-.553 0-1-.447-1-1s.447-1 1-1zm-16.995 2.17c-.003-.057-.005-.113-.005-.17 0-1.711 1.467-3.08 3.169-2.995.412-1.167 1.525-2.005 2.831-2.005.239 0 .474.027.7.08.557-.67 1.394-1.08 2.3-1.08.552 0 1 .447 1 1s-.448 1-1 1c-.421 0-.797.268-.935.667-.102.295-.335.525-.632.623-.297.097-.622.052-.879-.126-.157-.107-.348-.164-.554-.164-.551 0-1 .448-1 1 0 .06.007.113.014.167.043.379-.133.749-.453.955s-.73.211-1.057.015c-.148-.09-.323-.137-.504-.137-.551 0-1 .448-1 1 0 .181.047.354.137.505.196.325.189.733-.015 1.053s-.573.495-.951.456c-.055-.006-.11-.014-.171-.014-.551 0-1 .448-1 1s-.448 1-1 1-1-.447-1-1c0-1.306.838-2.419 2.005-2.83zm-.005 9.83c.239 0 .474.027.7.08.705-.847 1.917-1.251 3-1 .557-.67 1.394-1.08 2.3-1.08s1.743.41 2.3 1.08c1.084-.251 2.296.153 3 1 .227-.053.461-.08.7-.08 1.654 0 3 1.346 3 3 0 .553-.447 1-1 1s-1-.447-1-1-.449-1-1-1c-.206 0-.397.057-.554.164-.258.177-.582.222-.879.126-.296-.098-.53-.328-.632-.623-.206-.596-1.013-.83-1.489-.503-.258.177-.582.222-.879.126-.296-.098-.53-.328-.632-.623-.138-.399-.514-.667-.935-.667s-.797.268-.935.667c-.102.295-.335.525-.632.623-.297.097-.621.052-.879-.126-.477-.326-1.283-.092-1.489.503-.102.295-.335.525-.632.623-.297.097-.622.051-.879-.126-.157-.107-.348-.164-.554-.164-.551 0-1 .448-1 1s-.448 1-1 1-1-.447-1-1c0-1.654 1.346-3 3-3z"/><path d="m47.998 40.148c-1.562 0-2.529 1.669-3.066 3.069-2.005 5.236-6.889 7.782-14.932 7.782s-12.927-2.546-14.933-7.782c-.536-1.4-1.503-3.069-3.065-3.069-1.884 0-3.01.452-4.201.932-.865.348-1.75.704-2.901.9 1.628 1.637 4.679 3.464 7.985 4.255.437.104.75.487.767.937.016.449-.269.854-.697.989-1.055.335-1.584.819-2.254 1.435-.67.614-1.408 1.291-2.696 1.851 2.79 1.936 6.461 2.004 10.713.183.335-.144.721-.093 1.008.13.287.224.43.586.374.945-.066.418-.057.88-.048 1.368.022 1.176-.007 2.36-.497 3.816 2.908-.428 4.847-2.013 5.543-3.562.131-.313.416-.549.769-.604.052-.008.104-.012.156-.012.428 0 .817.274.951.693.507 1.585 1.683 2.958 3.027 3.554 1.345-.597 2.52-1.969 3.027-3.554.15-.47.626-.756 1.106-.684.363.057.655.305.78.632.707 1.543 2.642 3.112 5.531 3.537-.488-1.455-.519-2.639-.497-3.811.01-.468.02-.949-.047-1.374-.058-.359.086-.722.373-.945.288-.224.677-.274 1.008-.13 4.255 1.821 7.925 1.752 10.714-.183-1.287-.56-2.025-1.236-2.696-1.851-.67-.614-1.198-1.1-2.254-1.435-.429-.136-.714-.54-.697-.989.016-.449.329-.832.767-.937 3.306-.79 6.357-2.619 7.985-4.255-1.151-.196-2.037-.553-2.901-.9-1.191-.479-2.317-.932-4.201-.932z"/></svg>