<svg id="Icons" height="512" viewBox="0 0 60 60" width="512" xmlns="http://www.w3.org/2000/svg"><path d="m2.015 55.94c.006.027.011.052.014.077a1.825 1.825 0 0 0 1.553 1.52c7.793 1.129 34.269 2.551 47.819-26.461.152-.325.279-.664.4-1.006a3.008 3.008 0 0 1 -2.342-1.637l-.13-.261a13.422 13.422 0 0 1 -1.31-3.443 10.432 10.432 0 0 1 -4.165 2.7 3.769 3.769 0 0 1 -4.838-2.26 10.425 10.425 0 0 1 -.561-4.909 13.41 13.41 0 0 1 -3.66 1.219l-.232.052a2.916 2.916 0 0 1 -2.619-.7 11.2 11.2 0 0 0 -.72 1.3c-10.514 22.283-23.153 29.737-28.098 31.908a1.825 1.825 0 0 0 -1.111 1.901z"/><path d="m53.515 3.12a6.36 6.36 0 0 0 -3.786 2.98l-1.479 2.587c.151.052.3.093.454.152a13.471 13.471 0 0 1 1.393.644l1.377-2.4a4.279 4.279 0 0 1 2.6-2.035l3.926-1.13-.55-1.918z"/><path d="m51.117 27.278.128.257a1.009 1.009 0 0 0 .912.56h.019a.951.951 0 0 0 .867-.564l.9-1.9a10.972 10.972 0 0 0 -5.966-14.931 11.284 11.284 0 0 0 -14.183 5.953l-.721 1.547a.975.975 0 0 0 .112 1.047.922.922 0 0 0 .94.335l.237-.053a9.493 9.493 0 0 0 5.066-2.422 1 1 0 0 1 1.586 1.158 8.821 8.821 0 0 0 -.123 6.213 1.787 1.787 0 0 0 2.3 1.065 8.834 8.834 0 0 0 4.738-4.066 1 1 0 0 1 .9-.571 1.028 1.028 0 0 1 .251.032 1 1 0 0 1 .747 1.03 9.234 9.234 0 0 0 1.29 5.31z"/></svg>