<svg height="512pt" viewBox="-47 0 512 512" width="512pt" xmlns="http://www.w3.org/2000/svg"><g fill-rule="evenodd"><path d="m61.445312 233.242188c-.300781-2.59375-.667968-5.21875-1.117187-7.863282-.171875-1.066406-.347656-2.136718-.546875-3.214844-.648438-3.421874-1.378906-6.859374-2.230469-10.304687-.046875-.15625-.074219-.320313-.109375-.484375-.914062-3.660156-1.949218-7.242188-3.054687-10.84375-.328125-1.105469-.695313-2.214844-1.042969-3.320312-.832031-2.597657-1.699219-5.191407-2.613281-7.769532-.394531-1.117187-.777344-2.230468-1.1875-3.339844-1.152344-3.164062-2.355469-6.292968-3.605469-9.386718-.136719-.347656-.265625-.714844-.410156-1.0625-1.378906-3.410156-2.816406-6.746094-4.269532-10.058594-.464843-1.066406-.914062-2.109375-1.425781-3.171875-1.035156-2.285156-2.074219-4.570313-3.117187-6.746094l-1.5-3.15625c-1.21875-2.539062-2.4375-5.011719-3.65625-7.414062l-.75-1.5c-1.4375-2.796875-2.835938-5.484375-4.214844-8.015625-.503906-.914063-.996094-1.828125-1.492188-2.742188-.914062-1.65625-1.828124-3.265625-2.652343-4.800781-.5-.914063-1.003907-1.828125-1.488281-2.652344-.894532-1.589843-1.761719-3.09375-2.597657-4.507812-.308593-.539063-.648437-1.144531-.914062-1.65625-12.261719 39.316406-25.070313 160.167969-11.886719 283.941406.503906 4.671875 4.445312 8.21875 9.144531 8.230469l47.652344.027344v-164.574219c0-3.417969-.21875-6.910157-.539063-10.441407-.089843-1.050781-.230468-2.109374-.375-3.171874zm0 0"/><path d="m250.492188 115.027344c-2.058594 1.949218-4.070313 3.972656-6.023438 6.070312-.402344.429688-.824219.859375-1.21875 1.296875-2.148438 2.359375-4.203125 4.828125-6.171875 7.371094-.410156.527344-.792969 1.078125-1.195313 1.609375-1.71875 2.320312-3.367187 4.707031-4.890624 7.175781-.265626.421875-.558594.832031-.816407 1.261719-1.671875 2.773438-3.195312 5.632812-4.570312 8.566406-.320313.675782-.613281 1.371094-.914063 2.058594-1.242187 2.804688-2.332031 5.675781-3.253906 8.601562-.09375.3125-.222656.605469-.3125.914063-.945312 3.230469-1.6875 6.515625-2.222656 9.839844-.136719.804687-.246094 1.617187-.355469 2.429687-.492187 3.523438-.746094 7.078125-.757813 10.632813v237.714843h27.425782v-219.976562c0-24.660156 3.039062-49.226562 9.054687-73.140625l5-20.117187-.492187.394531c-2.40625 1.976562-4.792969 4.050781-7.125 6.207031-.390625.347656-.777344.714844-1.160156 1.089844zm0 0"/><path d="m399.867188 119.25c-.300782.511719-.640626 1.117188-.914063 1.65625-.835937 1.414062-1.699219 2.914062-2.597656 4.507812-.484375.847657-.984375 1.753907-1.488281 2.648438-.859376 1.539062-1.746094 3.148438-2.652344 4.800781-.492188.914063-.988282 1.828125-1.488282 2.742188-1.382812 2.5625-2.746093 5.222656-4.214843 8.019531-.25.484375-.503907 1.003906-.75 1.5-1.21875 2.394531-2.4375 4.867188-3.65625 7.414062l-1.5 3.15625c-1.042969 2.203126-2.085938 4.460938-3.117188 6.746094-.488281 1.058594-.917969 2.101563-1.429687 3.171875-1.453125 3.28125-2.886719 6.621094-4.269532 10.058594-.144531.347656-.273437.710937-.410156 1.058594-1.21875 3.089843-2.417968 6.222656-3.601562 9.390625-.410156 1.105468-.796875 2.222656-1.1875 3.335937-.917969 2.578125-1.832032 5.175781-2.617188 7.773438-.347656 1.105469-.710937 2.210937-1.042968 3.316406-1.105469 3.605469-2.136719 7.222656-3.050782 10.84375 0 .164063-.066406.332031-.113281.484375-.847656 3.449219-1.578125 6.886719-2.230469 10.304688-.199218 1.078124-.375 2.148437-.546875 3.21875-.449219 2.644531-.8125 5.265624-1.117187 7.863281-.117188 1.0625-.253906 2.121093-.347656 3.171875-.375 3.511718-.59375 7.003906-.59375 10.421875v164.574219h47.699218c4.699219-.011719 8.640625-3.558594 9.144532-8.230469 13.164062-123.785157.355468-244.660157-11.90625-283.949219zm0 0"/><path d="m16.644531 438.855469c0 5.050781 4.09375 9.144531 9.144531 9.144531h36.570313v-18.285156h-45.714844zm0 0"/></g><path d="m358.285156 160.320312c.585938-1.363281 1.179688-2.671874 1.773438-4.003906 1.011718-2.269531 2.03125-4.5 3.054687-6.695312.621094-1.324219 1.226563-2.621094 1.828125-3.910156 1.042969-2.160157 2.058594-4.242188 3.089844-6.300782.578125-1.160156 1.152344-2.320312 1.730469-3.457031 1.160156-2.277344 2.292969-4.441406 3.425781-6.574219.402344-.765625.816406-1.570312 1.21875-2.320312 1.527344-2.835938 3.007812-5.53125 4.425781-8.054688.246094-.4375.464844-.8125.703125-1.242187 1.1875-2.085938 2.320313-4.070313 3.390625-5.898438l1.125-1.902343c.914063-1.5 1.726563-2.90625 2.503907-4.195313l.914062-1.507813c.320312-.523437.6875-1.136718.980469-1.601562-16.59375-10.578125-53.945313-22.492188-78.492188-28.828125-4.5 2.863281-13.714843 8.660156-27.894531 17.472656l-10.058594 40.546875c-5.65625 22.476563-8.511718 45.570313-8.5 68.746094v219.976562c0 10.101563-8.1875 18.285157-18.289062 18.285157h-27.425782c-10.101562 0-18.285156-8.183594-18.285156-18.285157v-237.714843c0-67.847657-76.324218-103.039063-91.246094-109.265625-24.566406 6.273437-62.648437 18.359375-79.445312 29.066406.292969.464844.660156 1.070312.972656 1.582031l.914063 1.554688c.75 1.234375 1.554687 2.578125 2.394531 4.003906.429688.722656.824219 1.378906 1.269531 2.148437.996094 1.710938 2.058594 3.566407 3.15625 5.484376l.914063 1.601562c1.40625 2.503906 2.871094 5.175781 4.378906 7.980469.4375.816406.914062 1.691406 1.335938 2.523437 1.085937 2.066406 2.183593 4.160156 3.308593 6.402344.601563 1.179688 1.199219 2.386719 1.828125 3.589844 1.003906 2.011718 2.003906 4.042968 3.007813 6.144531.640625 1.335937 1.269531 2.671875 1.910156 4.042969 1.007813 2.144531 2.003906 4.332031 2.992187 6.554687.609376 1.371094 1.214844 2.742188 1.828126 4.105469 1.097656 2.523438 2.15625 5.09375 3.21875 7.6875.464843 1.152344.914062 2.269531 1.40625 3.4375 1.472656 3.742188 2.90625 7.542969 4.269531 11.402344.273437.769531.503906 1.546875.769531 2.3125 1.070312 3.109375 2.101562 6.238281 3.0625 9.390625.429688 1.378906.804688 2.742187 1.207031 4.160156.738281 2.597656 1.453125 5.191406 2.109375 7.808594.386719 1.515625.742188 3.035156 1.089844 4.570312.585938 2.542969 1.105469 5.074219 1.582031 7.617188.28125 1.507812.566407 3.007812.8125 4.507812.449219 2.742188.785157 5.402344 1.089844 8.089844.144531 1.28125.335937 2.570313.445313 3.839844.347656 3.941406.570312 7.84375.570312 11.695312v255.960938c0 5.050781 4.089844 9.144531 9.140625 9.144531h237.707031c5.046875 0 9.140625-4.09375 9.140625-9.144531v-256c0-3.847657.21875-7.75.566407-11.691407.109374-1.273437.304687-2.5625.449218-3.839843.300782-2.6875.640625-5.386719 1.089844-8.09375.246094-1.496094.527344-2.996094.8125-4.507813.476562-2.539062.996094-5.074218 1.582031-7.613281.347657-1.527344.703125-3.035156 1.085938-4.570313.660156-2.628906 1.371093-5.246093 2.132812-7.855468.390625-1.363282.757813-2.742188 1.179688-4.097656.96875-3.179688 2.007812-6.335938 3.089843-9.46875.253907-.75.484376-1.5.75-2.242188 1.359376-3.867188 2.796876-7.679688 4.277344-11.429688.449219-1.121093.914063-2.210937 1.363282-3.328124 1.078124-2.632813 2.15625-5.238282 3.261718-7.796876zm-298.816406-41.144531c-1.640625-2.886719-1.585938-6.4375.144531-9.273437 1.730469-2.835938 4.863281-4.511719 8.179688-4.375 3.320312.132812 6.304687 2.058594 7.796875 5.027344 17.371094 32.429687 38.617187 80.714843 41.335937 126.609374.148438 2.425782-.671875 4.808594-2.285156 6.628907-1.609375 1.816406-3.875 2.921875-6.300781 3.0625-.183594 0-.375 0-.550782 0-4.84375.011719-8.855468-3.765625-9.140624-8.601563-2.460938-42.597656-22.695313-88.246094-39.179688-119.066406zm57.746094 164.253907c0 5.046874-4.089844 9.140624-9.140625 9.140624s-9.144531-4.09375-9.144531-9.140624v-9.144532c0-5.050781 4.09375-9.140625 9.144531-9.140625s9.140625 4.089844 9.140625 9.140625zm0 0"/><path d="m133.671875 26.917969c49.316406-11.558594 100.632813-11.558594 149.945313 0 15.90625 2.566406 28.832031 14.214843 33.042968 29.769531 6.214844 1.625 16.144532 4.378906 27.308594 7.90625-1.484375-7.871094-4.160156-15.472656-7.9375-22.535156-4.894531-9.703125-13.113281-17.316406-23.15625-21.460938-33.28125-12.875-68.554688-19.84375-104.230469-20.597656-35.675781.753906-70.945312 7.722656-104.226562 20.597656-15.050781 5.265625-26.789063 22.539063-31.085938 43.988282 11.152344-3.53125 21.074219-6.273438 27.28125-7.910157 4.210938-15.554687 17.148438-27.199219 33.058594-29.757812zm0 0" fill-rule="evenodd"/><path d="m354.929688 448h36.574218c5.046875 0 9.140625-4.09375 9.140625-9.144531v-9.140625h-45.714843zm0 0" fill-rule="evenodd"/><path d="m269.273438 77.714844c14.371093-8.898438 23.933593-14.921875 29.253906-18.285156-3.113282-7.859376-10.199219-13.441407-18.566406-14.628907-46.90625-11.003906-95.722657-11.003906-142.628907 0-7.929687 1.199219-14.738281 6.269531-18.160156 13.523438 18.835937 8.226562 69.488281 34.191406 89.929687 81.964843.054688-.109374.121094-.21875.175782-.339843 1.265625-2.675781 2.664062-5.324219 4.1875-7.945313.328125-.566406.703125-1.125 1.039062-1.691406 1.226563-2.027344 2.507813-4.050781 3.878906-6.042969.574219-.832031 1.167969-1.664062 1.773438-2.488281 1.28125-1.773438 2.617188-3.527344 4.011719-5.265625.640625-.792969 1.273437-1.597656 1.941406-2.394531 1.75-2.066406 3.578125-4.109375 5.484375-6.136719.367188-.382813.6875-.765625 1.050781-1.148437 2.285157-2.371094 4.710938-4.710938 7.222657-7.015626.730468-.667968 1.519531-1.324218 2.269531-1.992187 1.828125-1.644531 3.765625-3.273437 5.75-4.882813.960937-.785156 1.9375-1.554687 2.933593-2.332031 1.988282-1.546875 4.027344-3.070312 6.117188-4.570312.914062-.675781 1.828125-1.363281 2.824219-2.039063 3.074219-2.113281 6.21875-4.214844 9.511719-6.289062zm0 0" fill-rule="evenodd"/></svg>