<?xml version="1.0" encoding="UTF-8"?>
<svg xmlns="http://www.w3.org/2000/svg" id="icons" viewBox="0 0 60 60" width="512" height="512"><path d="M47.551,8.206A27.98,27.98,0,0,0,8.206,47.552Zm-6.238.581,1.415-1.414a1,1,0,1,1,1.414,1.414L42.728,10.2a1,1,0,1,1-1.415-1.414Zm-4.242,4.242,1.414-1.414A1,1,0,1,1,39.9,13.029l-1.414,1.414a1,1,0,1,1-1.414-1.414Zm-4.243,4.242,1.415-1.414a1,1,0,0,1,1.414,1.415l-1.415,1.415a1,1,0,0,1-1.414-1.416Zm-4.242,4.244L30,20.1a1,1,0,0,1,1.414,1.414L30,22.929a1,1,0,1,1-1.414-1.414Zm-4.243,4.242,1.415-1.414a1,1,0,1,1,1.414,1.415l-1.415,1.414a1,1,0,0,1-1.414-1.415ZM20.1,30l1.414-1.414A1,1,0,1,1,22.929,30l-1.414,1.414A1,1,0,0,1,20.1,30Zm-4.243,4.243,1.414-1.415a1,1,0,1,1,1.415,1.414l-1.415,1.415a1,1,0,1,1-1.414-1.414Zm-4.243,4.242,1.414-1.414a1,1,0,1,1,1.414,1.414L13.029,39.9a1,1,0,1,1-1.414-1.414ZM7.373,44.142a1,1,0,0,1,0-1.414l1.414-1.415A1,1,0,1,1,10.2,42.728L8.787,44.142a1,1,0,0,1-1.414,0Z"/><path d="M10.934,50.48,50.48,10.934Q49.8,10.2,49.066,9.52L9.52,49.066Q10.2,49.8,10.934,50.48Z"/><path d="M12.448,51.794A27.98,27.98,0,0,0,51.794,12.448Zm6.239-.581-1.415,1.414a1,1,0,1,1-1.414-1.414L17.272,49.8a1,1,0,1,1,1.415,1.414Zm4.242-4.242-1.414,1.414A1,1,0,0,1,20.1,46.971l1.414-1.414a1,1,0,1,1,1.414,1.414Zm4.243-4.243-1.415,1.414a1,1,0,0,1-1.414-1.414l1.415-1.415a1,1,0,1,1,1.414,1.415Zm4.242-4.243L30,39.9a1,1,0,0,1-1.414-1.414L30,37.071a1,1,0,0,1,1.414,1.414Zm4.243-4.243-1.415,1.415a1,1,0,1,1-1.414-1.414l1.415-1.415a1,1,0,1,1,1.414,1.414ZM39.9,30l-1.414,1.414A1,1,0,0,1,37.071,30l1.414-1.414A1,1,0,0,1,39.9,30Zm4.243-4.243-1.414,1.414a1,1,0,1,1-1.415-1.414l1.415-1.414a1,1,0,0,1,1.414,1.414Zm4.243-4.242-1.414,1.414a1,1,0,1,1-1.414-1.414L46.971,20.1a1,1,0,0,1,1.414,1.414Zm4.242-5.657a1,1,0,0,1,0,1.414l-1.414,1.414A1,1,0,0,1,49.8,17.272l1.414-1.414A1,1,0,0,1,52.627,15.858Z"/></svg>
