<svg id="icons" height="512" viewBox="0 0 60 60" width="512" xmlns="http://www.w3.org/2000/svg"><path d="m41.465 28.445a14.66 14.66 0 0 1 -5.439-3.057l-23.326 23.329a3.8 3.8 0 0 0 -.922 3.906l1.379 4.138z"/><path d="m51.921 3.832v.582l3.658 3.657h.597l1.824-1.828-4.243-4.252z"/><path d="m38.666 11.319h16.016v4.001h-16.016z" transform="matrix(.707 -.707 .707 .707 4.252 36.905)"/><path d="m41.849 26.478a5.838 5.838 0 0 1 -.573-4.4l-3.355-3.358a5.848 5.848 0 0 1 -4.4-.571 12.675 12.675 0 0 0 3.188 5.144 12.661 12.661 0 0 0 5.14 3.185z"/><path d="m11.458 58.006-1.582-4.746a5.81 5.81 0 0 1 -.2-2.933 5.809 5.809 0 0 1 -2.933-.2l-4.768-1.59c0 .9.646 2.811 3.665 5.824 2.98 2.981 4.879 3.65 5.818 3.645z"/><path d="m11.28 47.307 23.331-23.332a14.368 14.368 0 0 1 -3.061-5.434l-28.307 28.311 4.132 1.377a3.8 3.8 0 0 0 3.905-.922z"/></svg>