<svg id="icons" height="512" viewBox="0 0 60 60" width="512" xmlns="http://www.w3.org/2000/svg"><path d="m14.06 30.05c-.44.07-.87.15-1.28.22a30.348 30.348 0 0 0 18.22 19.6c4.96 4.17 7.17 7.07 8.15 8.78a2.731 2.731 0 0 0 1.71 1.28 2.68 2.68 0 0 0 .62.07 2.633 2.633 0 0 0 1.46-.44 37.916 37.916 0 0 0 14.42-18.69 2.982 2.982 0 0 0 -2.8-3.89 97.805 97.805 0 0 1 -13.86-1.19 28.628 28.628 0 0 1 -2.15-6.69l-.55-.01h-.02c-.49-.01-11.15-.09-11.73-.08a21.793 21.793 0 0 0 .58 2.82 30.861 30.861 0 0 1 -4.81-2.65c-1.02.06-2.02.13-3 .23a31.324 31.324 0 0 0 8.74 4.97 10.86 10.86 0 0 0 1.08 1.83.912.912 0 0 1 .16.65 1 1 0 0 1 -.4.65l-1.8 1.31a53.253 53.253 0 0 1 -10.33-4.72 32.543 32.543 0 0 1 -1.7-4.17zm27.77 27.84a.658.658 0 0 1 -.94-.24 30.143 30.143 0 0 0 -5.39-6.44 42.975 42.975 0 0 0 9.44 1c1.15 0 2.33-.06 3.53-.13a33.434 33.434 0 0 1 -6.64 5.81zm-1.05-16.76a2.991 2.991 0 0 0 1.19-1.97 2.866 2.866 0 0 0 -.06-1.17 101.819 101.819 0 0 0 12.62.99.971.971 0 0 1 .78.41.992.992 0 0 1 .15.88 25.535 25.535 0 0 1 -1.06 2.72 101.837 101.837 0 0 1 -14.74-1.1zm-3.52 2.4a101.646 101.646 0 0 0 16.15 1.45 37.677 37.677 0 0 1 -3.53 5.39l-.03-.4a40.829 40.829 0 0 1 -17.97-1.9c-.28-.1-.53-.22-.8-.33zm-12.42-3.28-2.54 1.84a27.742 27.742 0 0 1 -3.87-4.62 56.816 56.816 0 0 0 6.41 2.78z"/><path d="m56.279 25.617-4.42-.63a1 1 0 0 1 -.859-.987 22.023 22.023 0 0 0 -22-22h-5a22.023 22.023 0 0 0 -22 22v6.294a.7.7 0 0 0 .97.655 50.063 50.063 0 0 1 10.762-2.869l-.283-2.147a4.01 4.01 0 0 1 3.312-4.5 135.1 135.1 0 0 1 19.215-1.443 3.931 3.931 0 0 1 2.854 1.142 3.976 3.976 0 0 1 1.2 2.858l-.015 3.143c9.229.213 15.528.613 17.675.765a.262.262 0 0 0 .213-.078.305.305 0 0 0 .097-.22 2.061 2.061 0 0 0 -1.721-1.983z"/><path d="m28 27q5.41 0 10.015.1l.015-3.106a1.991 1.991 0 0 0 -.6-1.426 1.965 1.965 0 0 0 -1.384-.569h-.036a133.181 133.181 0 0 0 -18.93 1.417 1.978 1.978 0 0 0 -1.648 2.252l.279 2.123a90.993 90.993 0 0 1 12.289-.791z"/></svg>