<svg id="Icons" height="512" viewBox="0 0 60 60" width="512" xmlns="http://www.w3.org/2000/svg"><path d="m57 12h-44a1 1 0 0 0 -1 1v32a1 1 0 0 0 1 1h44a1 1 0 0 0 1-1v-32a1 1 0 0 0 -1-1zm-1 30a2 2 0 0 1 -2 2h-38a2 2 0 0 1 -2-2v-26a2 2 0 0 1 2-2h38a2 2 0 0 1 2 2z"/><path d="m16 42h38v-26h-38zm2.293-20.709 3-3a1 1 0 0 1 1.414 1.414l-3 3a1 1 0 0 1 -1.414-1.414zm0 6 9-9a1 1 0 0 1 1.414 1.414l-9 9a1 1 0 0 1 -1.414-1.414zm0 6 15-15a1 1 0 0 1 1.414 1.414l-15 15a1 1 0 0 1 -1.414-1.414z"/><path d="m4 58h15a4 4 0 0 1 4-4h6v-6h-7.1a4.992 4.992 0 0 1 -9.814-.158 2.993 2.993 0 0 1 -2.086-2.842v-9h-4a2 2 0 0 1 -2-2v-26a2 2 0 0 1 2-2h22a2 2 0 0 1 2 2v2h2v-6a2 2 0 0 0 -2-2h-26a2 2 0 0 0 -2 2v52a2 2 0 0 0 2 2z"/><path d="m10 13a3 3 0 0 1 3-3h15v-2h-22v8h4z"/><path d="m6 18h4v7h-4z"/><path d="m6 27h4v7h-4z"/><path d="m19.816 48h-5.632a2.982 2.982 0 0 0 5.632 0z"/><path d="m23 56a2 2 0 0 0 -2 2h28a2 2 0 0 0 -2-2z"/><path d="m31 48h8v6h-8z"/></svg>