<svg id="Icons" viewBox="0 0 60 60" xmlns="http://www.w3.org/2000/svg"><path d="m52 55h5v3h-5z"/><path d="m3 55h5v3h-5z"/><path d="m2 47h56.001v6h-56.001z"/><path d="m2 45h56v-1.771c0-1.136-.619-2.156-1.616-2.663-3.355-1.705-11.244-4.566-26.384-4.566s-23.028 2.861-26.384 4.566c-.997.507-1.616 1.527-1.616 2.663z"/><path d="m23.129 14.998c1.689-1.498 2.753-3.727 2.854-4.767v-.004c.092-.916-.173-1.709-.728-2.178-.521-.434-1.557-.63-2.308-.179-.417.249-.735.691-.83 1.152-.023.115-.035.238-.035.379 0 .421-.264.797-.66.94-.395.142-.839.023-1.108-.301-.085-.102-.181-.197-.287-.287-.283-.219-.677-.346-1.074-.346-.096 0-.191.007-.285.022-.865.145-1.528.957-1.644 1.627-.116.71.192 1.49.849 2.134.751.732 3.006 1.753 5.257 1.806z"/><path d="m54 37.382v-12.382c0-1.103-.897-2-2-2h-44c-1.103 0-2 .897-2 2v12.382c4.49-1.625 12.088-3.382 24-3.382s19.51 1.757 24 3.382z"/><path d="m36.871 9.386c2.252-.054 4.506-1.073 5.259-1.808.653-.642.963-1.423.845-2.139-.113-.663-.776-1.476-1.646-1.621-.485-.078-1.003.053-1.388.352-.074.063-.171.159-.256.262-.27.321-.715.442-1.108.297-.396-.144-.658-.519-.658-.939 0-.14-.012-.263-.035-.376-.095-.463-.413-.905-.83-1.155-.3-.18-.645-.257-.983-.257-.513 0-1.013.176-1.329.44-.55.465-.814 1.258-.723 2.173v.004c.101 1.04 1.164 3.269 2.854 4.768z"/></svg>