<svg id="Icon" height="512" viewBox="0 0 60 60" width="512" xmlns="http://www.w3.org/2000/svg"><path d="m48 32.101v14.899h7v-19.191c-.73.706-1.525 1.364-2.384 1.959-1.457 1.01-3.016 1.789-4.616 2.333z"/><path d="m53.325 14.054c-.284-.402-.708-.673-1.194-.761-.491-.091-.99.019-1.401.304h-.002c-.846.591-1.057 1.758-.47 2.606.285.411.713.688 1.204.776.493.089.989-.02 1.399-.303s.003-.002.003-.002c.848-.588 1.06-1.756.473-2.604l-.012-.018z"/><path d="m48 51c0 .552.448 1 1 1h5c.552 0 1-.448 1-1v-2h-7z"/><path d="m48.613 17.342c-.388-.561-.59-1.191-.651-1.827l-1.168.809c-.848.587-1.06 1.756-.473 2.605.285.411.714.688 1.206.776.488.089.988-.019 1.399-.303l1.165-.807c-.584-.287-1.098-.704-1.478-1.254z"/><path d="m37.047 20.748c-.727.504-.616 2.398.618 4.182.617.892 1.423 1.606 2.209 1.963.62.278 1.16.311 1.486.085.727-.504.617-2.399-.617-4.182-1.233-1.783-2.97-2.551-3.696-2.048z"/><path d="m50.453 8.192c-3.556-.647-7.54.329-10.925 2.678-6.055 4.199-8.305 11.484-5.015 16.243 1.573 2.27 4.179 3.64 7.336 3.857 3.239.213 6.658-.788 9.627-2.846 2.967-2.058 5.112-4.905 6.041-8.018.904-3.032.536-5.949-1.037-8.214-1.349-1.95-3.433-3.229-6.027-3.701zm-7.953 20.429c-.483.335-1.06.503-1.684.503-.562 0-1.162-.137-1.767-.409-1.123-.509-2.199-1.448-3.029-2.646-1.848-2.669-1.897-5.728-.112-6.965 1.786-1.235 4.633-.112 6.479 2.554 1.847 2.668 1.896 5.727.112 6.964zm11.503-10.303h-.001s0 0 0 0-.002.001-.003.002l-3.933 2.726c-.654.454-1.416.69-2.197.69-.231 0-.466-.021-.699-.063-1.019-.185-1.903-.755-2.492-1.605 0 0 0 0 0-.002-1.214-1.755-.775-4.172.979-5.387l3.936-2.728c.851-.59 1.882-.813 2.897-.627 1.018.185 1.903.755 2.492 1.605.005.008.011.016.016.023 1.196 1.752.754 4.154-.993 5.364z"/><path d="m5 27.809v19.191h7v-14.899c-1.6-.544-3.159-1.322-4.615-2.332-.859-.596-1.655-1.254-2.385-1.961z"/><path d="m5 51c0 .552.448 1 1 1h5c.552 0 1-.448 1-1v-2h-7z"/><path d="m2.482 20.107c.929 3.112 3.074 5.96 6.042 8.019 2.968 2.058 6.39 3.059 9.626 2.845 3.157-.218 5.763-1.588 7.336-3.857 3.29-4.759 1.04-12.044-5.015-16.243-2.7-1.873-5.781-2.873-8.722-2.873-.747 0-1.483.064-2.203.195-2.595.472-4.679 1.751-6.026 3.699-1.574 2.267-1.942 5.184-1.038 8.216zm15.13 1.55c1.847-2.666 4.694-3.788 6.479-2.554 1.785 1.237 1.735 4.296-.112 6.965-.83 1.198-1.906 2.138-3.029 2.646-.604.272-1.204.409-1.767.409-.624 0-1.2-.168-1.683-.502-1.784-1.238-1.735-4.297.111-6.965zm-12.607-8.704c.005-.008.01-.015.015-.022.589-.851 1.475-1.421 2.492-1.605 1.018-.187 2.047.037 2.897.627l3.936 2.728c1.754 1.215 2.192 3.632.979 5.387-.59.852-1.475 1.423-2.493 1.607-.233.043-.468.063-.7.063-.78 0-1.542-.236-2.197-.691l-3.936-2.727c-1.747-1.212-2.189-3.614-.992-5.366z"/><path d="m11.072 19.402c.412.285.911.395 1.4.304.492-.089.92-.365 1.205-.776.587-.85.375-2.019-.473-2.605l-1.168-.809c-.061.636-.263 1.266-.651 1.827-.381.55-.894.967-1.478 1.254l1.164.806z"/><path d="m20.126 26.893c.786-.356 1.592-1.071 2.209-1.963 1.234-1.783 1.345-3.678.618-4.182-.146-.102-.335-.151-.552-.151-.855 0-2.16.776-3.145 2.199-1.234 1.782-1.344 3.678-.616 4.183.324.224.864.194 1.485-.086z"/><path d="m7.136 16.676.002.002c.411.283.905.392 1.399.302.491-.089.919-.365 1.204-.776.587-.848.376-2.016-.47-2.605h-.002c-.412-.286-.912-.395-1.401-.305-.486.088-.91.358-1.194.762-.004.005-.008.011-.012.017-.587.848-.375 2.016.473 2.604z"/></svg>