<svg id="Icon" height="512" viewBox="0 0 60 60" width="512" xmlns="http://www.w3.org/2000/svg"><path d="m4.407 41.791 14.744 2.154c1.475.214 2.966-.22 4.092-1.192 1.116-.966 1.757-2.363 1.757-3.836v-7.834c0-1.473-.641-2.87-1.757-3.836-.937-.81-2.126-1.246-3.349-1.246-.247 0-.495.018-.743.054l-14.744 2.154c-1.372.2-2.407 1.392-2.407 2.771v8.039c0 1.38 1.035 2.571 2.407 2.771z"/><path d="m55.593 4.209-14.744-2.154c-.248-.036-.496-.054-.743-.054-1.223 0-2.412.437-3.349 1.246-1.116.966-1.757 2.363-1.757 3.836v7.834c0 1.473.641 2.87 1.757 3.836 1.126.974 2.616 1.406 4.092 1.192l14.744-2.154c1.372-.2 2.407-1.392 2.407-2.771v-8.04c0-1.38-1.035-2.571-2.407-2.771z"/><path d="m6 47h4v-2.371l-4-.585z"/><path d="m51 25h2v33.001h-2z"/><path d="m50 23h4v-2.956l-4 .585z"/><path d="m7 49h2v9h-2z"/><path d="m29 44h3c3.715 0 6.177-2.152 7.313-3.436.442-.5.687-1.145.687-1.815v-7.498c0-.671-.244-1.315-.687-1.815-1.137-1.283-3.599-3.436-7.313-3.436h-3c-1.103 0-2 .897-2 2v14c0 1.103.897 2 2 2z"/><path d="m31 2h-3c-3.715 0-6.177 2.152-7.313 3.436-.442.5-.687 1.145-.687 1.815v7.498c0 .671.244 1.315.687 1.815 1.137 1.283 3.599 3.436 7.313 3.436h3c1.103 0 2-.897 2-2v-14c0-1.103-.897-2-2-2z"/></svg>