<svg id="Icons" height="512" viewBox="0 0 60 60" width="512" xmlns="http://www.w3.org/2000/svg"><path d="m47 16.309c-1.392-4.409-4.129-7.309-7-7.309s-5.608 2.9-7 7.309c3.124.976 5.674 4.217 7 8.645 1.329-4.428 3.879-7.669 7-8.645z"/><path d="m7.4 49.488a2.008 2.008 0 0 0 1.94 1.512h7.32a2.009 2.009 0 0 0 1.94-1.518l1.927-7.724a1 1 0 0 1 1.942 0l1.929 7.73a2.006 2.006 0 0 0 1.942 1.512h7.32a2.009 2.009 0 0 0 1.94-1.518l1.927-7.724a1 1 0 0 1 1.942 0l1.929 7.73a2.006 2.006 0 0 0 1.942 1.512h7.32a2.009 2.009 0 0 0 1.94-1.518l3.12-12.482h-51.44z"/><path d="m22 9c-2.871 0-5.608 2.9-7 7.309 3.124.976 5.674 4.217 7 8.645 1.329-4.428 3.879-7.669 7-8.645-1.392-4.409-4.129-7.309-7-7.309z"/><path d="m49 18c-4.144 0-7.665 5.858-7.97 13h15.94c-.305-7.142-3.826-13-7.97-13z"/><path d="m58 34a1 1 0 0 0 -1-1h-54a1 1 0 0 0 0 2h54a1 1 0 0 0 1-1z"/><path d="m31 18c-4.144 0-7.665 5.858-7.97 13h15.94c-.305-7.142-3.826-13-7.97-13z"/><path d="m13 18c-4.144 0-7.665 5.858-7.97 13h15.94c-.305-7.142-3.826-13-7.97-13z"/></svg>