<svg id="Icon" height="512" viewBox="0 0 60 60" width="512" xmlns="http://www.w3.org/2000/svg"><path d="m25 2c-5.874 0-8.727 1.717-10.044 3h20.09c-1.314-1.28-4.167-3-10.046-3z"/><path d="m42 12c4.411 0 8 3.589 8 8v14.5c0 .397.159.784.437 1.062.279.279.666.438 1.063.438.827 0 1.5-.673 1.5-1.5v-15.5c0-6.065-4.935-11-11-11h-2.228c.578 1.005 1.184 2.323 1.718 4z"/><path d="m9.306 56.287c-.204.2-.306.446-.306.713 0 .552.449 1 1 1h30c.552 0 1-.448 1-1 0-.267-.103-.514-.287-.693-.199-.204-.446-.307-.713-.307h-30c-.267 0-.513.103-.694.287z"/><path d="m7.02 10c.148 1.824.617 5.079 2.092 8.136.08.165.113.349.095.531-.136 1.403-.206 2.861-.206 4.333v26c0 2.757 2.243 5 5 5h21.999c2.757 0 5-2.243 5-5v-26c0-10.648-3.466-15.016-4.401-16h-23.2c-.334.348-.997 1.129-1.704 2.467-.173.328-.513.533-.884.533h-3.792z"/></svg>