<svg id="Icons" height="512" viewBox="0 0 60 60" width="512" xmlns="http://www.w3.org/2000/svg"><path d="m30 29v-5.118l-4.887 10.118h3.887c.553 0 1 .447 1 1v5.118l4.887-10.118h-3.887c-.553 0-1-.447-1-1z"/><path d="m18.363 55.018.223.994c.151.702.731 1.241 1.444 1.35 1.984.291 5.329.639 9.97.639s7.985-.348 9.975-.64c.708-.107 1.288-.646 1.438-1.341l.225-1.001c-2.462.503-6.227.982-11.637.982s-9.175-.479-11.637-.982z"/><path d="m17 3c0 .552.448 1 1 1h24c.552 0 1-.448 1-1s-.448-1-1-1h-24c-.552 0-1 .448-1 1z"/><path d="m44 13.385c0-.782-.156-1.544-.465-2.263l-2.194-5.122h-22.682l-2.194 5.121c-.309.72-.465 1.481-.465 2.264v1.726c9.181 1.169 18.819 1.169 28 0z"/><path d="m44 17.125c-4.594.573-9.295.873-14 .873s-9.406-.3-14-.873v27.986c9.153 1.166 18.847 1.166 28 0zm-7.174 13.458-5.51 11.407c-.294.632-.891 1.011-1.551 1.011-.127 0-.255-.014-.384-.042-.813-.181-1.382-.904-1.382-1.762v-5.197h-3.251c-.592 0-1.138-.304-1.461-.812-.34-.533-.383-1.195-.114-1.771l5.51-11.407c.351-.753 1.137-1.144 1.935-.969.813.181 1.382.904 1.382 1.762v5.197h3.251c.592 0 1.138.304 1.461.812.34.533.383 1.195.114 1.771z"/><path d="m44 50.907v-3.782c-4.58.572-9.28.875-14 .875s-9.42-.303-14-.875v3.782c0 .869.581 1.626 1.412 1.842 2.209.57 6.187 1.251 12.588 1.251s10.379-.681 12.589-1.251c.83-.216 1.411-.973 1.411-1.842z"/></svg>