<svg id="Icons" viewBox="0 0 60 60" xmlns="http://www.w3.org/2000/svg"><path d="m17.98 12.34c.41-.01.79-.06 1.14-.17.48-4.27 2.57-6.44 2.59-6.46.39-.39.39-1.03 0-1.42s-1.03-.39-1.42 0c-.11.12-2.7 2.77-3.2 7.95.28.07.56.1.85.1z"/><path d="m25.363 51h9.274l.32-4h-9.914z"/><path d="m24.883 45h10.234l.32-4h-10.874z"/><path d="m25 32c0-.342.035-.677.101-1h-22.101c-.267 0-.513.103-.694.288-.203.198-.306.445-.306.712 0 .552.448 1 1 1h22.101c-.066-.323-.101-.658-.101-1z"/><path d="m25.923 58h8.154l.4-5h-8.954z"/><path d="m23.133 28.323c.867.677 2.892.677 2.892.677.279-.369.606-.695.974-.974v-5.418c-1.474 2.017-2.796 3.971-3.867 5.715z"/><path d="m57 31h-22.101c.066.323.101.658.101 1s-.035.677-.101 1h22.101c.267 0 .514-.103.693-.287.204-.199.307-.446.307-.713 0-.552-.448-1-1-1z"/><path d="m36.083 58h7.064l.8-5h-7.464z"/><path d="m47 17c-4.963 0-9 4.038-9 9 0 1.035.182 2.04.522 3h16.956c.34-.96.522-1.965.522-3 0-4.962-4.037-9-9-9z"/><path d="m16.053 53 .8 5h7.064l-.4-5z"/><path d="m54.577 9.986s.006.004.009.006c.817-.732 1.498-1.754 1.743-2.468.348-.953.438-1.996.268-3.035-.032-.186-.195-.271-.265-.298-.074-.03-.27-.083-.444.048-1.044.793-2.355 1.22-3.271 1.438-.312.074-.628.142-.944.209-.409.088-.806.174-1.189.27.438.7.831 1.436 1.107 2.229 1.081.371 2.047.99 2.987 1.6z"/><path d="m11.147 35h-6.927l.8 4h6.767z"/><path d="m7.025 29h12.304c-5.166-2.3-10.045-6.019-13.719-10.483l-2.585 1.473c.88 2.893 2.206 6.13 4 9.01z"/><path d="m4.371 16.921c-.44-.604-.867-1.214-1.26-1.838l-1.097.867c.117.631.277 1.329.458 2.053z"/><path d="m12.107 41h-6.687l.8 4h6.527z"/><path d="m48.417 11.583c1.346 1.346 2.392 2.856 3.078 4.388.484.218.948.47 1.391.753.944.03 1.885-.16 2.723-.571.912-.439 1.71-1.123 2.312-1.978.124-.172.068-.35.038-.419-.03-.07-.122-.237-.324-.264-1.041-.143-2.157-.581-3.322-1.301-.274-.17-.549-.348-.824-.526-1.188-.771-2.311-1.499-3.529-1.608-.817-.076-1.678.214-2.367.762.279.243.555.495.824.765z"/><path d="m30 37c-1.627 0-3.061-.793-3.974-2h-1.942l.32 4h11.193l.32-4h-1.942c-.914 1.207-2.348 2-3.974 2z"/><path d="m45.977 9.584c.92-.876 2.093-1.415 3.303-1.515-.28-.526-.616-1.052-.968-1.595-.171-.263-.342-.525-.505-.789-.719-1.166-1.154-2.281-1.295-3.32-.027-.202-.193-.294-.263-.325-.074-.031-.256-.089-.427.032-.854.604-1.536 1.404-1.974 2.313-.568 1.161-.709 2.538-.449 3.853.86.325 1.727.779 2.577 1.344z"/><path d="m36.643 51h7.624l.64-4h-7.943z"/><path d="m48.213 39h6.767l.8-4h-6.927z"/><path d="m46.293 51h6.287l.8-4h-6.447z"/><path d="m47.253 45h6.527l.8-4h-6.687z"/><path d="m37.123 45h8.104l.64-4h-8.424z"/><path d="m23.036 47h-7.943l.64 4h7.624z"/><path d="m45.173 58h4.368c.95 0 1.774-.677 1.961-1.608l.678-3.392h-6.208l-.8 5z"/><path d="m7.82 53 .678 3.392c.187.932 1.011 1.608 1.961 1.608h4.368l-.8-5h-6.208z"/><path d="m13.173 35 .64 4h8.584l-.32-4z"/><path d="m13.067 47h-6.447l.8 4h6.287z"/><path d="m46.827 35h-8.904l-.32 4h8.584z"/><path d="m22.877 45-.32-4h-8.424l.64 4z"/><path d="m33.974 29h2.452c-.275-.971-.426-1.973-.426-3 0-6.065 4.935-11 11-11 .605 0 1.194.062 1.773.156-.496-.747-1.086-1.475-1.77-2.159-2.906-2.907-6.549-4.14-8.655-2.93-.102.059-.218.138-.332.215l2.821 2.821c.391.391.391 1.023 0 1.414-.195.195-.451.293-.707.293s-.512-.098-.707-.293l-2.97-2.97c-.89.81-1.936 1.878-3.096 3.166l2.93 2.93c.391.391.391 1.023 0 1.414-.195.195-.451.293-.707.293s-.512-.098-.707-.293l-1.873-1.873v10.841c.369.279.695.606.974.974z"/><path d="m21.215 27.632c1.505-2.49 3.527-5.415 5.785-8.36v-4.482c-1.128-1.168-2.444-1.791-3.83-1.791-.82 0-1.607.209-2.339.621-.852.466-1.802.702-2.755.718-.019.001-.036.011-.055.011-.013 0-.024 0-.037 0-.009 0-.016-.005-.024-.006-.977-.003-1.953-.24-2.826-.715-.745-.419-1.528-.628-2.343-.628-2.208 0-4.296 1.655-5.566 4.336 3.726 4.504 8.744 8.197 13.991 10.296z"/><path d="m31 27.101v-24.101c0-.267-.103-.513-.287-.694-.2-.204-.446-.306-.713-.306-.552 0-1 .449-1 1v24.101c.323-.066.658-.101 1-.101s.677.035 1 .101z"/><circle cx="30" cy="32" r="3"/><path d="m12.79 11c1.146 0 2.291.304 3.312.879.135.074.276.137.418.193-.59-1.26-1.53-2.367-2.619-3.012-1.422-.849-3.207-1.209-4.896-1.005-.051 1.315.188 2.678.645 3.754.989-.516 2.048-.81 3.141-.81z"/></svg>