<?xml version="1.0"?>
<svg xmlns="http://www.w3.org/2000/svg" id="icons" viewBox="0 0 60 60" width="512" height="512"><path d="M22,4V3a1,1,0,0,0-1-1H17a3,3,0,0,0-2.994,2.937A8.989,8.989,0,0,1,18,4Z"/><circle cx="23" cy="16" r="1"/><path d="M11,49h8a1,1,0,0,0,1-1V45.236a.993.993,0,0,0-.553-.894l-2.472-1.237a1,1,0,0,0-.447-.1H13.472a1,1,0,0,0-.447.1l-2.472,1.237a.993.993,0,0,0-.553.894V48A1,1,0,0,0,11,49Z"/><path d="M45.994,4.938A3,3,0,0,0,43,2H39a1,1,0,0,0-1,1V4h4A8.976,8.976,0,0,1,45.994,4.938Z"/><circle cx="37" cy="16" r="1"/><path d="M30,2a2,2,0,0,0-2,2h4A2,2,0,0,0,30,2Z"/><path d="M58,56V40a2,2,0,0,0-2-2H31V58H56A2,2,0,0,0,58,56ZM40,56H36a1,1,0,0,1,0-2h4a1,1,0,0,1,0,2Zm13,0H49a1,1,0,0,1,0-2h4a1,1,0,0,1,0,2Zm-2-7a4,4,0,1,1,4-4A4,4,0,0,1,51,49Z"/><path d="M11.009,12.649l-1,12.243A4.789,4.789,0,0,0,11.34,28.53c.013.012.031.016.044.03s.012.022.021.032a4.781,4.781,0,0,0,8.034-2.243l1.022-4.1a2.009,2.009,0,0,1,.988-1.277,1.967,1.967,0,0,1,1.579-.132,3,3,0,0,0,3.908-2.215A2,2,0,0,1,28.9,17H31.1a2,2,0,0,1,1.96,1.624,3,3,0,0,0,3.908,2.214,1.965,1.965,0,0,1,1.579.132,2.009,2.009,0,0,1,.988,1.277l1.022,4.1A4.786,4.786,0,0,0,45.2,30a4.846,4.846,0,0,0,3.4-1.411c.008-.009.011-.021.019-.029s.028-.016.04-.028a4.806,4.806,0,0,0,1.337-3.65l-1-12.2A7,7,0,0,0,42,6H18A6.992,6.992,0,0,0,11.009,12.649ZM42,11h1V10a1,1,0,0,1,2,0v1h1a1,1,0,0,1,0,2H45v1a1,1,0,0,1-2,0V13H42a1,1,0,0,1,0-2Zm-2,5a3,3,0,1,1-3-3A3,3,0,0,1,40,16ZM32,8h3a1,1,0,0,1,0,2H32a1,1,0,0,1,0-2ZM25,8h3a1,1,0,0,1,0,2H25a1,1,0,0,1,0-2Zm-2,5a3,3,0,1,1-3,3A3,3,0,0,1,23,13ZM15.248,27.207a1,1,0,0,1-.958.715,1.009,1.009,0,0,1-.285-.042A2.839,2.839,0,0,1,12,25l.415-5.08a1,1,0,0,1,1.994.164L14,25.143a.821.821,0,0,0,.576.821A1,1,0,0,1,15.248,27.207ZM14,11h1V10a1,1,0,0,1,2,0v1h1a1,1,0,0,1,0,2H17v1a1,1,0,0,1-2,0V13H14a1,1,0,0,1,0-2Z"/><path d="M4,58H29V38H4a2,2,0,0,0-2,2V56A2,2,0,0,0,4,58Zm21-3a1,1,0,0,1-1,1H20a1,1,0,0,1,0-2h4A1,1,0,0,1,25,55ZM8,45.236a2.985,2.985,0,0,1,1.658-2.683l2.473-1.237A3.014,3.014,0,0,1,13.472,41h3.056a3.014,3.014,0,0,1,1.341.316l2.473,1.237A2.985,2.985,0,0,1,22,45.236V48a3,3,0,0,1-3,3H11a3,3,0,0,1-3-3ZM7,54h4a1,1,0,0,1,0,2H7a1,1,0,0,1,0-2Z"/><path d="M54.77,36l-5.476-5.374A6.764,6.764,0,0,1,38.677,27H21.324a6.777,6.777,0,0,1-10.619,3.626L5.23,36Z"/><circle cx="51" cy="45" r="2"/></svg>
