<svg height="512" viewBox="0 0 42 57" width="512" xmlns="http://www.w3.org/2000/svg"><g id="015---Gaming-Chair"><path id="Path" d="m4.686 50.032c-1.38199109.1422789-2.48644024 1.2130798-2.67139592 2.590009-.18495569 1.3769292.5977727 2.7012248 1.89323104 3.2031514s2.76611216.0507061 3.55715662-1.0913934.69637121-2.6775016-.22899174-3.713767c4.0305277-1.7857001 8.3598018-2.8008613 12.764-2.993v2.157c-1.3775467.4870363-2.2038721 1.8956662-1.9567957 3.3357331.2470764 1.4400668 1.4956868 2.492694 2.9567957 2.492694s2.7097193-1.0526272 2.9567957-2.492694c.2470764-1.4400669-.579249-2.8486968-1.9567957-3.3357331v-2.157c4.4033357.1952879 8.7314989 1.211026 12.762 2.995-.920964 1.0353414-1.0130116 2.5667295-.2226936 3.7049315s2.2573458 1.5870359 3.5492227 1.0858767c1.2918768-.5011591 2.0724317-1.8219 1.8884187-3.1953066-.1840129-1.3734066-1.2847098-2.442092-2.6629478-2.5855016-4.7514834-2.4360375-9.9782906-3.8033217-15.314-4.006v-3.3c.6179872-.3551266.9992829-1.0132429 1-1.726v-1h-4v1c.002145.7113268.3832487 1.3675874 1 1.722v3.3c-5.3360122.2039204-10.56283545 1.572574-15.314 4.01z"/><path id="Path" d="m0 37c0 .5522847.44771525 1 1 1h40c.5522847 0 1-.4477153 1-1s-.4477153-1-1-1v-10c.5522847 0 1-.4477153 1-1s-.4477153-1-1-1h-2c-.5522847 0-1 .4477153-1 1s.4477153 1 1 1v10h-4v-2.88c-.0011008-.6181024-.5018976-1.1188992-1.12-1.12h-.009c-.5643448.001059-1.0400805.421128-1.111.981l-.018.141-.25 2c-.0615981.5011311-.4870974.8777323-.992.878-.0417877-.0002074-.0835268-.0028787-.125-.008-.5477838-.0686288-.936322-.5681779-.868-1.116l.11-.876h-19.234l.109.876c.068322.5478221-.3202162 1.0473712-.868 1.116-.041142.0050823-.082546.0077535-.124.008-.50384797-.0006461-.92852321-.3760402-.991-.876l-.25-2-.018-.143c-.07485837-.5883817-.59366224-1.0175742-1.18564924-.9808557s-1.05377624.5267331-1.05535076 1.1198557v2.88h-4v-10c.55228475 0 1-.4477153 1-1s-.44771525-1-1-1h-2c-.55228475 0-1 .4477153-1 1s.44771525 1 1 1v10c-.55228475 0-1 .4477153-1 1z"/><rect id="Rectangle" height="8" rx="2" width="12" x="15" y="24"/><path id="Path" d="m28.444 32h2.516c.4646859-1.2034683 1.6209363-1.9978691 2.911-2h.009c.041 0 .079.011.12.012v-11.0120073c0-.5522774-.4477153-.9999927-1-1h-2c-.5522847.0000073-1-.447708-1-1 0-.5522774.4477153-.9999927 1-1h1v-6.00000001c0-1.10456219-.8954305-1.99999269-2-2h-4c-.5522847.00000731-1-.44770794-1-1 0-.55227744.4477153-.99999269 1-1l1.382.00000731-2.724-5.447c-.1679935-.33988684-.5148658-.55445101-.894-.553h-5.528c-.3791342-.00145101-.7260065.21311316-.894.553l-2.724 5.447 1.382-.00000731c.5522847.00000731 1 .44772256 1 1 0 .55229206-.4477153 1.00000731-1 1h-4c-1.1045695.00000731-2 .89543781-2 2v6.00000001h1c.5522847.0000073 1 .4477226 1 1 0 .552292-.4477153 1.0000073-1 1h-2c-.55228475.0000073-1 .4477226-1 1v11.0120073c.041 0 .079-.012.12-.012 1.2931914-.0002998 2.4536013.7942295 2.921 2h2.515c-.3599241-.6053465-.5518554-1.2957468-.556-2.0000073v-4c0-2.2091317 1.790861-3.9999927 4-4v-11c0-.5522774.4477153-.9999927 1-1.00000001.5522847.00000731 1 .44772261 1 1.00000001v11h4v-11c0-.5522774.4477153-.9999927 1-1.00000001.5522847.00000731 1 .44772261 1 1.00000001v11c2.209139.0000073 4 1.7908683 4 4v4c-.0041446.7042605-.1960759 1.3946608-.556 2.0000073z"/></g></svg>