<svg id="Icons" height="512" viewBox="0 0 60 60" width="512" xmlns="http://www.w3.org/2000/svg"><path d="m46 41a17.659 17.659 0 0 0 -3.791-11 45.186 45.186 0 0 1 -10.209-28h-4a45.186 45.186 0 0 1 -10.21 28.005 17.66 17.66 0 0 0 -3.79 10.995c0 9.374 7.178 17 16 17s16-7.626 16-17z"/><path d="m18 58a15.13 15.13 0 0 0 3.3-.378 19.192 19.192 0 0 1 -9.3-16.622 19.662 19.662 0 0 1 4.229-12.244 45.237 45.237 0 0 0 7.878-14.672c-4.21 6.088-8.972 9.037-13.288 11.694l-.863.533a17.263 17.263 0 0 0 -7.956 14.689c0 9.374 7.178 17 16 17z"/><path d="m50.045 26.311-.864-.533c-4.316-2.657-9.079-5.606-13.288-11.694a45.222 45.222 0 0 0 7.878 14.671 19.667 19.667 0 0 1 4.229 12.245 19.192 19.192 0 0 1 -9.3 16.622 15.13 15.13 0 0 0 3.3.378c8.822 0 16-7.626 16-17a17.264 17.264 0 0 0 -7.955-14.689z"/></svg>