<?xml version="1.0" encoding="UTF-8"?>
<svg xmlns="http://www.w3.org/2000/svg" id="Icons" viewBox="0 0 60 60" width="512" height="512"><path d="M30,16a4.98,4.98,0,0,0-3.8,1.758,6.857,6.857,0,0,1,.68,4.506A6.953,6.953,0,0,1,30,24.123a6.959,6.959,0,0,1,4.889-2.116A4.963,4.963,0,0,0,30,16Z"/><path d="M27.69,6.768a16.247,16.247,0,0,0-5.218-.724,17.431,17.431,0,0,1,6.25,3.35,1.944,1.944,0,0,1,.6,1.61c-.1,1.009-.163,2.032-.216,3.055a6.627,6.627,0,0,1,2.052.045A33.561,33.561,0,0,1,33.346,3.818a1.248,1.248,0,0,0,.094-.488,1.332,1.332,0,0,0-.658-1.139A1.365,1.365,0,0,0,31.574,2.1a1.33,1.33,0,0,0-.8.862A30.322,30.322,0,0,0,29.621,7.6,11.56,11.56,0,0,0,27.69,6.768Z"/><path d="M20,16a4.974,4.974,0,0,0-4.833,6.252A6.909,6.909,0,0,1,21,23.267a6.943,6.943,0,0,1,3.881-1.262A4.948,4.948,0,0,0,25,21,5.006,5.006,0,0,0,20,16Z"/><path d="M34.166,49.759a4.98,4.98,0,0,0,.005-5.51c-.1-.149-.211-.282-.32-.414A6.973,6.973,0,0,1,30,45a6.993,6.993,0,0,1-3.174,5.854,4.983,4.983,0,0,0,7.34-1.095Z"/><path d="M30.578,53.964C30.386,53.98,30.2,54,30,54a6.984,6.984,0,0,1-5.134-2.26,6.866,6.866,0,0,1-3.846-.03c0,.1-.02.191-.02.29a4.988,4.988,0,0,0,9.578,1.964Z"/><path d="M23.374,31.871a7.048,7.048,0,0,1,1.632,1.246,6.949,6.949,0,0,1,4.555-2.09,4.946,4.946,0,0,0-.39-4.778A4.965,4.965,0,0,0,22.5,24.684a6.935,6.935,0,0,1,.874,7.187Z"/><path d="M34.171,35.249a4.991,4.991,0,0,0-7.973-.491,6.954,6.954,0,0,1,0,6.484,4.992,4.992,0,0,0,7.968-.483,4.98,4.98,0,0,0,.005-5.51Z"/><path d="M48,29a5.006,5.006,0,0,0-5-5,4.947,4.947,0,0,0-2.5.685A6.882,6.882,0,0,1,41.631,31.2a7,7,0,0,1,3.663,2.234A4.986,4.986,0,0,0,48,29Z"/><path d="M40,16a4.98,4.98,0,0,0-3.8,1.758,6.952,6.952,0,0,1,.687,4.5A6.919,6.919,0,0,1,39,23.27a6.891,6.891,0,0,1,5.833-1.018A4.912,4.912,0,0,0,45,21,5.006,5.006,0,0,0,40,16Z"/><path d="M39.565,31.027a4.995,4.995,0,0,0-8.374-5.26,6.794,6.794,0,0,1,.438,5.43A6.944,6.944,0,0,1,35,33.123,6.947,6.947,0,0,1,39.565,31.027Z"/><path d="M25.006,42.883A6.958,6.958,0,0,1,18.02,44.71c0,.1-.02.191-.02.29a5,5,0,0,0,10,0c0-.114-.021-.2-.028-.312A6.944,6.944,0,0,1,25.006,42.883Z"/><path d="M38,53a4.911,4.911,0,0,0-.125-1.061,6.7,6.7,0,0,1-2.743-.2,6.943,6.943,0,0,1-2.272,1.635,6.957,6.957,0,0,1-2.325,3.953A4.941,4.941,0,0,0,33,58,5.006,5.006,0,0,0,38,53Z"/><path d="M42,45c0-.1-.015-.193-.02-.29a6.915,6.915,0,0,1-5.708-.8,6.947,6.947,0,0,1,.079,6.028A4.929,4.929,0,0,0,37,50,5.006,5.006,0,0,0,42,45Z"/><path d="M14.706,33.434a6.95,6.95,0,0,1,6.8-2.267,5,5,0,1,0-6.8,2.267Z"/><circle cx="20" cy="38" r="5"/><path d="M45,38a5,5,0,0,0-8.809-3.233,6.865,6.865,0,0,1,0,6.466A5,5,0,0,0,45,38Z"/><path d="M13.2,2.656c1.358,2.241,4.062,5.679,8.118,6.306A2.979,2.979,0,0,0,23.6,8.386a18.747,18.747,0,0,0-2.635-.963A1.441,1.441,0,0,1,19.9,5.938,1.427,1.427,0,0,1,21.121,4.6a21.838,21.838,0,0,1,3.638-.279A3.588,3.588,0,0,0,21.437,2a9.591,9.591,0,0,0-2.446.356A13.754,13.754,0,0,1,13.2,2.656Z"/></svg>
