<svg id="Icon" height="512" viewBox="0 0 60 60" width="512" xmlns="http://www.w3.org/2000/svg"><path d="m55.109 37.287-2.302-1.747-8.375 21.423 2.88.274c1.01.099 1.95-.492 2.314-1.428l6.22-15.911s0-.002.002-.004c.365-.924.062-1.996-.738-2.608z"/><path d="m8.574 33.579 9.34 23.891c.08.209.234.369.437.459.205.088.431.093.636.014l3.411-1.34c.43-.169.637-.64.472-1.07l-9.338-23.895c-.129-.328-.443-.53-.774-.53-.1 0-.2.019-.298.057l-3.421 1.34c-.207.081-.368.237-.458.443-.087.202-.091.423-.011.621.002.004.003.007.005.011z"/><path d="m4.154 39.899 6.22 15.91c.364.937 1.307 1.519 2.313 1.429l2.881-.274-2.006-5.132-6.369-16.292-2.305 1.75c-.797.609-1.101 1.682-.735 2.605 0 .002 0 .003.002.004z"/><path d="m51.431 33.568c.08-.198.076-.419-.011-.621-.09-.206-.251-.362-.454-.441l-3.424-1.342c-.098-.038-.198-.057-.298-.057-.332 0-.646.203-.776.532l-9.339 23.898c-.163.425.044.896.475 1.064l3.409 1.34c.208.081.433.076.637-.014.202-.09.356-.25.435-.453l.002-.005s0 0 0-.001l9.34-23.891s.003-.007.005-.011z"/><path d="m30 2c-14.252 0-25 9.888-25 23 0 3.619.636 6.581 1.302 8.705l.234-.178c-.043-.463.018-.933.209-1.374.202-.467.524-.853.921-1.145-.434-1.976-.666-3.992-.666-6.008 0-11.972 9.888-21 23-21s23 9.028 23 21c0 2.017-.233 4.032-.666 6.008.396.292.719.677.921 1.145.191.442.252.911.209 1.374l.234.178c.666-2.125 1.302-5.086 1.302-8.705 0-13.112-10.748-23-25-23z"/></svg>