<?xml version="1.0" encoding="UTF-8"?>
<svg xmlns="http://www.w3.org/2000/svg" id="icons" viewBox="0 0 60 60" width="512" height="512"><path d="M58,47l-.811-17.03a3.123,3.123,0,0,0-2.4-2.874C51.459,26.312,43.809,25,30,25S8.541,26.312,5.21,27.094a3.123,3.123,0,0,0-2.4,2.875L2,47l4,0L7.648,34.658a4,4,0,0,1,2.782-3.285C13.318,30.48,18.111,29,30,29s16.682,1.48,19.545,2.365a4.009,4.009,0,0,1,2.806,3.288L53.991,47,58,47Z"/><path d="M22.815,18.118C25.015,18.044,27.4,18,30,18c2.425,0,4.74.038,6.957.109L40,15.063,32.933,8Z"/><path d="M29,2A23.037,23.037,0,0,0,6.649,19.588a111.457,111.457,0,0,1,13.216-1.347L31.523,6.583a2,2,0,0,1,2.824,0l7.07,7.07a2,2,0,0,1,0,2.824L39.68,18.215q6.492.306,11.6,1.053A23.042,23.042,0,0,0,29,2Z"/><path d="M54.92,49A7.006,7.006,0,0,1,48,55H38v2H48a9.01,9.01,0,0,0,8.941-8Z"/><path d="M3.059,49A9.01,9.01,0,0,0,12,57H22V55H12a7.006,7.006,0,0,1-6.92-6Z"/><rect x="24" y="54" width="12.001" height="4"/><path d="M48.99,33.287C46.2,32.425,41.587,31,30,31s-16.2,1.425-18.955,2.276A1.985,1.985,0,0,0,9.63,34.927L8.518,43.3C10.964,44.333,16.005,46,30,46s19.036-1.667,21.482-2.7l-1.113-8.374A1.968,1.968,0,0,0,48.99,33.287Z"/><path d="M51.987,24.5a23.034,23.034,0,0,0-.28-3.152A145.113,145.113,0,0,0,30,20c-11.954,0-19.441.891-23.759,1.692A23.18,23.18,0,0,0,6,24.874C9.91,24.073,17.477,23,30,23A133.935,133.935,0,0,1,51.987,24.5Z"/></svg>
