<?xml version="1.0" encoding="UTF-8"?>
<svg xmlns="http://www.w3.org/2000/svg" id="Icons" viewBox="0 0 60 60" width="512" height="512"><path d="M29,13a.965.965,0,0,0,.694-.287A.978.978,0,0,0,30,12a1,1,0,0,0-1-1H14.888a20.672,20.672,0,0,1,1.333,2Z"/><path d="M51.725,38.21l-6.8-1.7a3.083,3.083,0,0,0-2.673.631c-2.854,2.285-6.934,3.221-9.879,3.605A9.136,9.136,0,0,0,39.36,44H54V41.12A3,3,0,0,0,51.725,38.21Z"/><path d="M8.029,52,10,52V31a5.987,5.987,0,0,1,2.751-5.037A36.36,36.36,0,0,0,4.138,21.65C8.178,30.031,8.152,46.7,8.029,52Z"/><path d="M58,47.9V46H39.36a11.145,11.145,0,0,1-9.885-5.964q-.852-1.6-1.829-3.448A38.424,38.424,0,0,0,19,25.68v2.792a36,36,0,0,1,6.883,9.058c2.2,4.12,4.1,7.788,5.821,11.212A5.929,5.929,0,0,0,37,52c10.656,0,16.839-1.365,19.575-2.179A2,2,0,0,0,58,47.9Z"/><path d="M17,26.652V23.49A18.529,18.529,0,0,0,9.125,8.159.81.81,0,0,0,8.261,8.1a13.585,13.585,0,0,0-6,7.648A4.682,4.682,0,0,0,2,17.271a3.915,3.915,0,0,0,.609,1.839A36.8,36.8,0,0,1,17,26.652Z"/></svg>
