<svg id="Icons" viewBox="0 0 60 60" xmlns="http://www.w3.org/2000/svg"><path d="m2 17v26c0 .552.448 1 1 1h54c.552 0 1-.448 1-1v-26c0-.552-.448-1-1-1h-54c-.552 0-1 .448-1 1zm41 23h-26c-.553 0-1-.447-1-1s.447-1 1-1h26c.553 0 1 .447 1 1s-.447 1-1 1zm-27-7c0-.553.447-1 1-1h2c.553 0 1 .447 1 1s-.447 1-1 1h-2c-.553 0-1-.447-1-1zm6 0c0-.553.447-1 1-1h2c.553 0 1 .447 1 1s-.447 1-1 1h-2c-.553 0-1-.447-1-1zm6 0c0-.553.447-1 1-1h2c.553 0 1 .447 1 1s-.447 1-1 1h-2c-.553 0-1-.447-1-1zm6 0c0-.553.447-1 1-1h2c.553 0 1 .447 1 1s-.447 1-1 1h-2c-.553 0-1-.447-1-1zm9 1h-2c-.553 0-1-.447-1-1s.447-1 1-1h2c.553 0 1 .447 1 1s-.447 1-1 1zm12 6h-8c-.553 0-1-.447-1-1s.447-1 1-1h8c.553 0 1 .447 1 1s-.447 1-1 1zm0-6h-8c-.553 0-1-.447-1-1s.447-1 1-1h8c.553 0 1 .447 1 1s-.447 1-1 1zm0-6h-5c-.553 0-1-.447-1-1s.447-1 1-1h5c.553 0 1 .447 1 1s-.447 1-1 1zm-2-8h2c.553 0 1 .447 1 1s-.447 1-1 1h-2c-.553 0-1-.447-1-1s.447-1 1-1zm-6 0h2c.553 0 1 .447 1 1s-.447 1-1 1h-2c-.553 0-1-.447-1-1s.447-1 1-1zm0 7c0 .553-.447 1-1 1h-2c-.553 0-1-.447-1-1s.447-1 1-1h2c.553 0 1 .447 1 1zm-6-7h2c.553 0 1 .447 1 1s-.447 1-1 1h-2c-.553 0-1-.447-1-1s.447-1 1-1zm0 7c0 .553-.447 1-1 1h-2c-.553 0-1-.447-1-1s.447-1 1-1h2c.553 0 1 .447 1 1zm-6-7h2c.553 0 1 .447 1 1s-.447 1-1 1h-2c-.553 0-1-.447-1-1s.447-1 1-1zm0 7c0 .553-.447 1-1 1h-2c-.553 0-1-.447-1-1s.447-1 1-1h2c.553 0 1 .447 1 1zm-6-7h2c.553 0 1 .447 1 1s-.447 1-1 1h-2c-.553 0-1-.447-1-1s.447-1 1-1zm0 7c0 .553-.447 1-1 1h-2c-.553 0-1-.447-1-1s.447-1 1-1h2c.553 0 1 .447 1 1zm-6-7h2c.553 0 1 .447 1 1s-.447 1-1 1h-2c-.553 0-1-.447-1-1s.447-1 1-1zm0 7c0 .553-.447 1-1 1h-2c-.553 0-1-.447-1-1s.447-1 1-1h2c.553 0 1 .447 1 1zm-6-7h2c.553 0 1 .447 1 1s-.447 1-1 1h-2c-.553 0-1-.447-1-1s.447-1 1-1zm0 7c0 .553-.447 1-1 1h-2c-.553 0-1-.447-1-1s.447-1 1-1h2c.553 0 1 .447 1 1zm-6-7h2c.553 0 1 .447 1 1s-.447 1-1 1h-2c-.553 0-1-.447-1-1s.447-1 1-1zm-6 0h2c.553 0 1 .447 1 1s-.447 1-1 1h-2c-.553 0-1-.447-1-1s.447-1 1-1zm0 6h5c.553 0 1 .447 1 1s-.447 1-1 1h-5c-.553 0-1-.447-1-1s.447-1 1-1zm0 6h8c.553 0 1 .447 1 1s-.447 1-1 1h-8c-.553 0-1-.447-1-1s.447-1 1-1zm0 6h8c.553 0 1 .447 1 1s-.447 1-1 1h-8c-.553 0-1-.447-1-1s.447-1 1-1z"/></svg>