<svg id="Icons" height="512" viewBox="0 0 60 60" width="512" xmlns="http://www.w3.org/2000/svg"><path d="m3.692 57.217a4.12 4.12 0 0 0 4.492.212 4.072 4.072 0 0 0 2-3.932 1 1 0 0 1 .324-.84l13.057-11.819-4.191-4.59-16.03 14.613a4.1 4.1 0 0 0 .348 6.356zm13.265-15.971.638-.582a1 1 0 0 1 1.347 1.477l-.637.582a1 1 0 0 1 -1.348-1.477zm-5.732 5.234.636-.582a1 1 0 0 1 1.35 1.477l-.637.582a1 1 0 1 1 -1.349-1.477zm-5.732 5.235.637-.582a1 1 0 1 1 1.349 1.476l-.636.582a1 1 0 0 1 -1.35-1.476z"/><path d="m20.852 34.9 4.2 4.594.02-.018a5.066 5.066 0 0 1 7.182.351 1.043 1.043 0 0 0 1.467.039l13.31-12.261c14-12.783 11.1-22.81 9.881-25.579z"/></svg>