<svg id="Icons" viewBox="0 0 60 60" xmlns="http://www.w3.org/2000/svg"><path d="m2 51c0 .552.448 1 1 1h54c.552 0 1-.448 1-1v-1h-56z"/><path d="m24.713 46c-.058 0-.112.034-.139.087l-.956 1.913h12.764l-.957-1.915c-.025-.051-.08-.085-.138-.085z"/><path d="m22.786 45.19c.369-.735 1.107-1.19 1.927-1.19h10.574c.819 0 1.558.455 1.926 1.188l1.405 2.812h18.383l-3.9-5.2c-.376-.501-.975-.8-1.601-.8h-43c-.626 0-1.225.299-1.601.801l-3.9 5.199h18.382l1.404-2.81z"/><path d="m9 40h42c.552 0 1-.448 1-1v-29c0-1.103-.897-2-2-2h-40c-1.103 0-2 .897-2 2v29c0 .552.448 1 1 1zm1-28c0-1.103.897-2 2-2h36c1.103 0 2 .897 2 2v24c0 1.103-.897 2-2 2h-36c-1.103 0-2-.897-2-2z"/><path d="m12 12h36v24.001h-36z"/></svg>