<svg id="Icons" height="512" viewBox="0 0 60 60" width="512" xmlns="http://www.w3.org/2000/svg"><path d="m30 58c11.579 0 21-11.663 21-26 0-11.685-6.352-21.994-15.446-25.07a4.488 4.488 0 0 1 -2.854-2.657 3.086 3.086 0 0 0 -2.7-2.273 3.086 3.086 0 0 0 -2.7 2.273 4.488 4.488 0 0 1 -2.854 2.657c-9.094 3.076-15.446 13.385-15.446 25.07 0 14.337 9.421 26 21 26zm13.1-14.432.61-1.275a1 1 0 1 1 1.8.863l-.61 1.276a1 1 0 0 1 -1.8-.864zm-2.8 3.725a1 1 0 0 1 1.414 1.414l-1 1a1 1 0 0 1 -1.414-1.414zm-4-3 1-1a1 1 0 0 1 1.414 1.414l-1 1a1 1 0 0 1 -1.414-1.414zm-1.958 7.207 1.342-.447a1 1 0 0 1 .632 1.9l-1.341.448a1 1 0 1 1 -.633-1.9z"/></svg>