<svg id="Icons" height="512" viewBox="0 0 60 60" width="512" xmlns="http://www.w3.org/2000/svg"><path d="m2 12h49.949a11.01 11.01 0 0 0 -10.949-10h-33a6.006 6.006 0 0 0 -6 6zm35-8h4a3 3 0 0 1 0 6h-4a3 3 0 0 1 0-6zm-27 2h17a1 1 0 0 1 0 2h-17a1 1 0 0 1 0-2z"/><path d="m56 40v-9h-28v9a9.01 9.01 0 0 0 9 9h10a9.01 9.01 0 0 0 9-9z"/><path d="m37 51a10.989 10.989 0 0 1 -2-.191v2.191h14v-2.191a10.989 10.989 0 0 1 -2 .191z"/><path d="m40 23h4v2h-4z"/><path d="m36 20a1 1 0 0 0 1 1h10a1 1 0 0 0 1-1v-1h-12z"/><path d="m37 8h4a1 1 0 0 0 0-2h-4a1 1 0 0 0 0 2z"/><path d="m58 28a1 1 0 0 0 -1-1h-30a1 1 0 0 0 0 2h30a1 1 0 0 0 1-1z"/><path d="m56 55h-22a17.019 17.019 0 0 1 -17-17v-14a7.009 7.009 0 0 1 7-7h27a1 1 0 0 0 1-1v-2h-50v1a2 2 0 0 0 2 2h2a4 4 0 0 1 4 4v27a6.913 6.913 0 0 1 -2.056 4.95 6.9 6.9 0 0 1 -4.944 2.05h-.022a.96.96 0 0 0 -.681.284 1 1 0 0 0 -.297.716v2h56v-1a2 2 0 0 0 -2-2zm-42-8a1 1 0 0 1 -2 0v-19a1 1 0 0 1 2 0z"/><path d="m53 8h3v-4h-5.641a13.013 13.013 0 0 1 2.641 4z"/></svg>