<svg id="icons" height="512" viewBox="0 0 60 60" width="512" xmlns="http://www.w3.org/2000/svg"><path d="m31.938 14.609 4.316-2.7a6 6 0 0 1 3.18-.909h4.9a24.987 24.987 0 0 0 -42.296 16.631 44.026 44.026 0 0 0 .121 5.4c13.192 2.862 29.013 7.716 46.962 21.269l.995-.662a2.01 2.01 0 0 0 .884-1.668v-8.691a6.488 6.488 0 0 1 -2.132 1.235 8 8 0 0 1 -2.868.486c-8.934 0-14.808-6.769-16.395-8.843a2.991 2.991 0 0 1 -.605-1.807v-3.83a2.988 2.988 0 0 1 .452-1.591c1.2-1.9 5.11-6.374 15.59-6.878a1.013 1.013 0 0 0 .958-1v-1.051h-4a14.711 14.711 0 0 0 -6.248 1.546 3.964 3.964 0 0 1 -3.814-6.937zm-7.058 15.261-.874 3.06a3.1 3.1 0 0 1 -2.99 2.237 3.161 3.161 0 0 1 -.73-.085c-6.277-1.475-9.642-6.308-11.09-9.057a2.062 2.062 0 0 1 2.617-2.859 39.565 39.565 0 0 0 10.469 2.79 3.083 3.083 0 0 1 2.6 3.914z"/><path d="m22.046 27.942a41.565 41.565 0 0 1 -11-2.931l-.075.083a15.064 15.064 0 0 0 9.777 8.041 1.109 1.109 0 0 0 1.339-.754l.874-3.061a1.073 1.073 0 0 0 -.139-.905 1.061 1.061 0 0 0 -.776-.473z"/><path d="m47.351 55.478a111.434 111.434 0 0 0 -44.968-20.351c.086.626.184 1.211.3 1.689a.967.967 0 0 0 .729.693c5.266 1.268 19.4 5.306 36.73 15.345 1.547.888 3.142 1.843 4.737 2.837a2.015 2.015 0 0 0 2.187-.023z"/><path d="m57.5 16.712a37.278 37.278 0 0 1 -9-3.278 3.826 3.826 0 0 0 -1.812-.434h-7.254a4 4 0 0 0 -2.121.608l-4.313 2.697a1.976 1.976 0 0 0 -.644 2.677 1.945 1.945 0 0 0 2.526.763 16.715 16.715 0 0 1 7.118-1.745h15.348a.653.653 0 0 0 .148-1.288z"/></svg>