<?xml version="1.0"?>
<svg xmlns="http://www.w3.org/2000/svg" id="icons" viewBox="0 0 60 60" width="512" height="512"><path d="M27.052,18.516a2.991,2.991,0,0,0,5.9,0A6.884,6.884,0,0,0,30,18,6.908,6.908,0,0,0,27.052,18.516Z"/><path d="M27,16.4a10.124,10.124,0,0,1,3-.4,10.124,10.124,0,0,1,3,.4V14.543A6.721,6.721,0,0,0,30,14a6.721,6.721,0,0,0-3,.543Z"/><path d="M27,30a3,3,0,0,0,6,0V21.974a4.9,4.9,0,0,1-6,0Zm2-3a1,1,0,1,1,2,0v2a1,1,0,0,1-2,0Z"/><path d="M45.9,44.277A12.072,12.072,0,0,0,46,42.79V30.21c-.131.3-.262.589-.392.873A14.275,14.275,0,0,0,44,38,10.961,10.961,0,0,0,45.9,44.277Z"/><path d="M14,30.21V42.79a12.072,12.072,0,0,0,.1,1.487A10.961,10.961,0,0,0,16,38a14.275,14.275,0,0,0-1.608-6.917C14.262,30.8,14.131,30.509,14,30.21Z"/><path d="M33,8.026V4H27V8.026a4.9,4.9,0,0,1,6,0Z"/><path d="M27,12.4a10.124,10.124,0,0,1,3-.4,10.124,10.124,0,0,1,3,.4V12a3,3,0,0,0-6,0Z"/><path d="M46,12A10.011,10.011,0,0,0,36,2H35V30a5,5,0,0,1-10,0V2H24A10.011,10.011,0,0,0,14,12v7c0,6.39,1.125,8.863,2.212,11.256A16.117,16.117,0,0,1,18,38a12.9,12.9,0,0,1-3.311,8.768,12.091,12.091,0,0,0,2.273,3.919C19.861,54.023,24.477,58,30,58s10.139-3.977,13.038-7.313a12.091,12.091,0,0,0,2.273-3.919A12.9,12.9,0,0,1,42,38a16.117,16.117,0,0,1,1.788-7.744C44.875,27.863,46,25.39,46,19ZM30,55a4,4,0,1,1,4-4A4,4,0,0,1,30,55Z"/><circle cx="30" cy="51" r="2"/></svg>
