<?xml version="1.0"?>
<svg xmlns="http://www.w3.org/2000/svg" id="Icons" viewBox="0 0 60 60" width="512" height="512"><path d="M13,39h.1a4.654,4.654,0,0,1,.01-2H13a2.006,2.006,0,0,1-2-2V24h2a1,1,0,0,0,1-1V21a1,1,0,0,0-1-1H7a1,1,0,0,0-1,1v2a1,1,0,0,0,1,1H9V35A4,4,0,0,0,13,39Z"/><path d="M39,27a2,2,0,0,0,2-2V4a2,2,0,0,0-2-2H21a2,2,0,0,0-2,2V25a2,2,0,0,0,2,2H39ZM24,6a1,1,0,0,0-1,1,1,1,0,0,1-2,0,3,3,0,0,1,3-3H36a3,3,0,0,1,3,3,1,1,0,0,1-2,0,1,1,0,0,0-1-1Z"/><rect x="27" y="29" width="6" height="2"/><path d="M16.019,34.886l-.8,2A3,3,0,0,0,18,41H42a3,3,0,0,0,2.785-4.114l-.8-2A2.984,2.984,0,0,0,41.2,33H18.8A2.984,2.984,0,0,0,16.019,34.886ZM20,37H40a1,1,0,0,1,0,2H20a1,1,0,0,1,0-2Z"/><path d="M47,39a4,4,0,0,0,4-4V24h2a1,1,0,0,0,1-1V21a1,1,0,0,0-1-1H47a1,1,0,0,0-1,1v2a1,1,0,0,0,1,1h2V35a2.006,2.006,0,0,1-2,2h-.11a4.654,4.654,0,0,1,.01,2Z"/><path d="M42.5,58A1.5,1.5,0,0,0,44,56.5V55h1a1,1,0,0,0,0-2H32V49a1,1,0,0,0-1-1V43H29v5a1,1,0,0,0-1,1v4H15a1,1,0,0,0,0,2h1v1.5a1.5,1.5,0,0,0,3,0V55H41v1.5A1.5,1.5,0,0,0,42.5,58Z"/></svg>
