<svg id="Icons" height="512" viewBox="0 0 60 60" width="512" xmlns="http://www.w3.org/2000/svg"><path d="m54 26h-48v28h48zm-45.707 5.293 3-3a1 1 0 0 1 1.414 1.414l-3 3a1 1 0 0 1 -1.414-1.414zm10.414-1.586-8 8a1 1 0 0 1 -1.414-1.414l8-8a1 1 0 0 1 1.414 1.414z"/><path d="m4 58h52a2 2 0 0 0 2-2v-40h-56v40a2 2 0 0 0 2 2zm7-39h38a1 1 0 0 1 0 2h-38a1 1 0 0 1 0-2zm-7 7a2 2 0 0 1 2-2h48a2 2 0 0 1 2 2v28a2 2 0 0 1 -2 2h-48a2 2 0 0 1 -2-2z"/><circle cx="17" cy="8" r="2"/><circle cx="43" cy="8" r="2"/><circle cx="30" cy="8" r="2"/><path d="m4 2a2 2 0 0 0 -2 2v10h56v-10a2 2 0 0 0 -2-2zm13 10a4 4 0 1 1 4-4 4 4 0 0 1 -4 4zm13 0a4 4 0 1 1 4-4 4 4 0 0 1 -4 4zm13 0a4 4 0 1 1 4-4 4 4 0 0 1 -4 4z"/></svg>