<svg id="Icons" height="512" viewBox="0 0 60 60" width="512" xmlns="http://www.w3.org/2000/svg"><path d="m30 13c.253 0 .5.02.749.039a25.94 25.94 0 0 1 2.245-9.773l-1.659-1.266a18.448 18.448 0 0 0 -1.7 4.577 1 1 0 0 1 -1.618.521 12.478 12.478 0 0 0 -1.457-1.051 4.514 4.514 0 0 1 -.758 1.9 7.333 7.333 0 0 1 2.938 3.233 1.007 1.007 0 0 1 .055.442c-.047.455-.087.949-.12 1.479a9.814 9.814 0 0 1 1.325-.101z"/><path d="m15.308 3.925a9.183 9.183 0 0 1 1.892 1.716 5.708 5.708 0 0 0 4.182 2.34 3.1 3.1 0 0 0 2.367-.706 2.583 2.583 0 0 0 .891-1.875 3.46 3.46 0 0 0 -3.194-3.364 9.11 9.11 0 0 0 -6.138 1.889z"/><path d="m30 58c8.822 0 16-6.144 16-13.694 0-4.192-1.215-7.573-3.61-10.049a15.856 15.856 0 0 1 -4.443-11.073 7.95 7.95 0 1 0 -15.894 0 15.855 15.855 0 0 1 -4.442 11.072c-2.396 2.477-3.611 5.858-3.611 10.05 0 7.55 7.178 13.694 16 13.694zm-11.888-16a1 1 0 0 1 .925 1.069c-.024.342-.037.7-.037 1.06 0 3.166 2.3 6.1 5.872 7.471a1 1 0 0 1 -.359 1.933 1.013 1.013 0 0 1 -.36-.066c-4.345-1.667-7.153-5.335-7.153-9.335q0-.621.043-1.2a1.008 1.008 0 0 1 1.069-.932z"/></svg>