<?xml version="1.0" encoding="UTF-8"?>
<svg xmlns="http://www.w3.org/2000/svg" id="icons" viewBox="0 0 60 60" width="512" height="512"><path d="M22,23a8.736,8.736,0,0,1,4.445,1.105A6.743,6.743,0,0,0,30,25a6.756,6.756,0,0,0,3.553-.895A8.739,8.739,0,0,1,38,23a8.75,8.75,0,0,1,4.45,1.105A6.865,6.865,0,0,0,45,24.944V21a1,1,0,0,0-1-1H16a1,1,0,0,0-1,1v3.944a6.86,6.86,0,0,0,2.554-.839A8.736,8.736,0,0,1,22,23Z"/><path d="M33,3a1,1,0,0,0-1-1H28a1,1,0,0,0-1,1V4h1a1,1,0,1,1,0,2H27V9h6Z"/><path d="M24,14H36V12a1,1,0,0,0-1-1H25a1,1,0,0,0-1,1Z"/><path d="M30,48.835l9.492-9.286a4.965,4.965,0,0,0,0-7.122,5.41,5.41,0,0,0-7.339,0L30.7,33.852a1,1,0,0,1-1.4,0l-1.452-1.425a5.407,5.407,0,0,0-7.338,0,4.955,4.955,0,0,0,0,7.121Z"/><path d="M16,58H44a5.006,5.006,0,0,0,5-5V21a5.006,5.006,0,0,0-5-5H16a5.006,5.006,0,0,0-5,5V53A5.006,5.006,0,0,0,16,58ZM13,21a3,3,0,0,1,3-3H44a3,3,0,0,1,3,3V53a3,3,0,0,1-3,3H16a3,3,0,0,1-3-3Z"/><path d="M16,54H44a1,1,0,0,0,1-1V26.952a8.766,8.766,0,0,1-3.45-1.057,7.5,7.5,0,0,0-7.108,0A8.745,8.745,0,0,1,30,27,8.724,8.724,0,0,1,25.551,25.9,6.744,6.744,0,0,0,22,25a6.751,6.751,0,0,0-3.551.895A8.761,8.761,0,0,1,15,26.952V53A1,1,0,0,0,16,54Zm3.11-23a7.47,7.47,0,0,1,10.136,0l.754.74.757-.74A7.469,7.469,0,0,1,40.9,31a6.965,6.965,0,0,1,0,9.978l0,0L31.11,50.55A1.6,1.6,0,0,1,30,51a1.57,1.57,0,0,1-1.105-.448l-9.783-9.571a6.955,6.955,0,0,1,0-9.98Z"/></svg>
