<svg id="Icons" height="512" viewBox="0 0 60 60" width="512" xmlns="http://www.w3.org/2000/svg"><path d="m8.57 43.107a4.1 4.1 0 0 0 1.53 2.093 4.238 4.238 0 0 0 3.53.672 66.879 66.879 0 0 1 -1.83-8.041 9.75 9.75 0 0 1 -1.8-5.644v-6.187a4 4 0 0 1 4-4h32a4 4 0 0 1 4 4v6.187a9.75 9.75 0 0 1 -1.8 5.644 71.9 71.9 0 0 1 -1.81 8.043 4.221 4.221 0 0 0 3.51-.674 4.093 4.093 0 0 0 1.524-2.083 51.38 51.38 0 0 0 2.576-16.117c0-14.252-10.317-25-24-25s-24 10.748-24 25a51.356 51.356 0 0 0 2.57 16.107z"/><path d="m26 56v1a1 1 0 0 0 1 1h5.5a1.5 1.5 0 0 0 0-3h-5.5a1 1 0 0 0 -1 1z"/><path d="m53.98 42a2.38 2.38 0 0 0 2.32-1.9l1.649-8.276a2.334 2.334 0 0 0 -1.992-2.789 53.346 53.346 0 0 1 -2.094 12.965z"/><path d="m12.581 48a6.31 6.31 0 0 1 -1.677-.241l.875 3.5a7.578 7.578 0 0 0 7.361 5.741h4.86v-1a2.966 2.966 0 0 1 .184-1h-5.044a5.573 5.573 0 0 1 -5.419-4.228l-.7-2.8c-.149.009-.295.028-.44.028z"/><path d="m48 26a2 2 0 0 0 -2-2h-32a2 2 0 0 0 -2 2v6.187a7.814 7.814 0 0 0 14.645 3.794 3.838 3.838 0 0 1 6.71 0 7.814 7.814 0 0 0 14.645-3.794zm-33.707 2.293 2-2a1 1 0 0 1 1.414 1.414l-2 2a1 1 0 0 1 -1.414-1.414zm9.414-.586-7 7a1 1 0 0 1 -1.414-1.414l7-7a1 1 0 0 1 1.414 1.414z"/><path d="m2.533 29.865a2.341 2.341 0 0 0 -.485 1.956l1.652 8.279a2.379 2.379 0 0 0 2.32 1.9h.118a53.3 53.3 0 0 1 -2.1-12.965 2.337 2.337 0 0 0 -1.505.83z"/></svg>