<?xml version="1.0" encoding="UTF-8"?>
<svg xmlns="http://www.w3.org/2000/svg" id="Icons" viewBox="0 0 60 60" width="512" height="512"><path d="M39,6a2,2,0,0,0-2-2,1.932,1.932,0,0,0-.976.27,1,1,0,0,1-1.339-.336,1.968,1.968,0,0,0-2.661-.664,1,1,0,0,1-1.339-.336,1.981,1.981,0,0,0-3.6.543,1,1,0,0,1-1.337.671,2,2,0,0,0-2.673,1.329,1,1,0,0,1-1.346.669A1.922,1.922,0,0,0,21,6a2,2,0,0,0-2,2,1,1,0,0,1-1,1,2,2,0,0,0-2,2,1,1,0,0,1-1,1,2,2,0,0,0-2,2,1,1,0,0,1-1,1,1.982,1.982,0,0,0-1.479,3.321A4.7,4.7,0,0,1,13.684,17h.1a5.828,5.828,0,0,1,4.054,1.445A5.821,5.821,0,0,1,21.894,17a5.827,5.827,0,0,1,4.053,1.445A5.821,5.821,0,0,1,30,17a5.821,5.821,0,0,1,4.053,1.445A5.827,5.827,0,0,1,38.106,17a5.821,5.821,0,0,1,4.053,1.445A5.828,5.828,0,0,1,46.213,17l.123,0a4.638,4.638,0,0,1,2.511.807,1.992,1.992,0,0,0,.312-3.432,1,1,0,0,1-.3-1.254A1.375,1.375,0,0,0,49,12.5,1.5,1.5,0,0,0,47.5,11a1.344,1.344,0,0,0-.377.062A.994.994,0,0,1,45.9,10.4,1.982,1.982,0,0,0,43.024,9.27a1,1,0,0,1-1.339-.336A1.986,1.986,0,0,0,40,8a.74.74,0,0,1-.19.02,1,1,0,0,1-.936-1.353A1.866,1.866,0,0,0,39,6ZM22,13a1,1,0,0,0-1,1,1,1,0,0,1-2,0,3,3,0,0,1,3-3,1,1,0,0,1,0,2Zm8-5a1,1,0,0,0-1,1,1,1,0,0,1-2,0,3,3,0,0,1,3-3,1,1,0,0,1,0,2Zm7,5a1,1,0,0,1-1-1,1,1,0,0,0-1-1,1,1,0,0,1,0-2,3,3,0,0,1,3,3A1,1,0,0,1,37,13Zm7-1a1,1,0,0,1,0,2,1,1,0,0,0-1,1,1,1,0,0,1-2,0A3,3,0,0,1,44,12Z"/><path d="M41.127,20.253A3.646,3.646,0,0,0,38.106,19a3.6,3.6,0,0,0-3.061,1.307L34.028,58H37.1Z"/><path d="M25.972,58,24.955,20.305A3.6,3.6,0,0,0,21.894,19a3.66,3.66,0,0,0-3.021,1.253L22.9,58Z"/><path d="M33.044,20.285A3.613,3.613,0,0,0,30,19a3.626,3.626,0,0,0-3.044,1.285L27.974,58h4.052Z"/><path d="M44.662,55.38l4.315-33.215a2.843,2.843,0,0,0-.673-2.221A2.683,2.683,0,0,0,46.291,19h0a3.667,3.667,0,0,0-3.159,1.338L39.112,58h2.521A3.044,3.044,0,0,0,44.662,55.38Z"/><path d="M13.787,19a2.728,2.728,0,0,0-2.091.944,2.843,2.843,0,0,0-.673,2.221L15.338,55.38A3.044,3.044,0,0,0,18.367,58h2.521L16.871,20.336A3.583,3.583,0,0,0,13.787,19Z"/></svg>
