<svg id="Icons" height="512" viewBox="0 0 60 60" width="512" xmlns="http://www.w3.org/2000/svg"><path d="m8.495 18h9.068a9.1 9.1 0 0 0 4.868-1.508 15.979 15.979 0 0 1 17.138 0 9.1 9.1 0 0 0 4.868 1.508h7.068c.268-2.856.463-6.175.491-10h-43.996c.032 3.825.227 7.144.495 10z"/><path d="m38.847 2-.667 4h5.973l.667-4z"/><path d="m35 36c5.9 0 8-4.133 8-8a6.369 6.369 0 0 0 -1-3.468 1.14 1.14 0 0 0 -.828-.524 1.039 1.039 0 0 0 -.864.284 17.541 17.541 0 0 1 -12.308 4.708 11.732 11.732 0 0 1 -5.782-1.523c.306.377.617.773.933 1.176 2.703 3.447 5.765 7.347 11.849 7.347z"/><path d="m29 2h-5.82l.667 4h5.153z"/><path d="m21.153 2h-5.973l.667 4h5.973z"/><path d="m31 2v4h5.153l.667-4z"/><path d="m7.82 2a.82.82 0 0 0 -.794 1.021l.753 2.979h6.041l-.667-4z"/><path d="m52.18 2h-5.333l-.667 4h6.041l.752-2.977a.819.819 0 0 0 -.793-1.023z"/><path d="m23.507 41.822a13.978 13.978 0 0 0 14.986 0 11.093 11.093 0 0 1 5.944-1.822h6.863c-.286-2.495-.618-4.571-.928-6.165a19.993 19.993 0 0 1 0-7.67c.31-1.594.642-3.67.928-6.165h-6.863a11.093 11.093 0 0 1 -5.944-1.822 13.978 13.978 0 0 0 -14.986 0 11.093 11.093 0 0 1 -5.944 1.822h-8.863c.286 2.5.618 4.571.928 6.165a19.993 19.993 0 0 1 0 7.67c-.31 1.594-.642 3.67-.928 6.165h8.862a11.093 11.093 0 0 1 5.945 1.822zm-6.507-17.822a11.953 11.953 0 0 1 5.947 1.605 10.144 10.144 0 0 0 5.053 1.395 15.549 15.549 0 0 0 10.924-4.153 3.046 3.046 0 0 1 2.488-.825 3.13 3.13 0 0 1 2.275 1.438 8.326 8.326 0 0 1 1.313 4.54c0 6.075-3.925 10-10 10a13.456 13.456 0 0 1 -8.09-2.59c-.394.039-.78.064-1.151.064a10.516 10.516 0 0 1 -7.023-2.674c-2.426-2.128-3.736-5.092-3.736-6.8a1.913 1.913 0 0 1 2-2z"/><path d="m7.82 58h5.333l.667-4h-6.041l-.752 2.977a.819.819 0 0 0 .793 1.023z"/><path d="m21.153 58 .667-4h-5.973l-.667 4z"/><path d="m51.505 42h-7.068a9.1 9.1 0 0 0 -4.868 1.508 15.979 15.979 0 0 1 -17.138 0 9.1 9.1 0 0 0 -4.868-1.508h-9.068c-.268 2.856-.463 6.175-.495 10h44c-.032-3.825-.227-7.144-.495-10z"/><path d="m31 58h5.82l-.667-4h-5.153z"/><path d="m29 58v-4h-5.153l-.667 4z"/><path d="m38.847 58h5.973l-.667-4h-5.973z"/><path d="m20.056 31.3a8.63 8.63 0 0 0 4.5 2.084 40.2 40.2 0 0 1 -2.978-3.493c-1.632-2.079-3.041-3.873-4.562-3.886a8.67 8.67 0 0 0 3.04 5.295z"/><path d="m52.18 58a.82.82 0 0 0 .794-1.021l-.753-2.979h-6.041l.667 4z"/></svg>