<svg id="Icons" viewBox="0 0 60 60" xmlns="http://www.w3.org/2000/svg"><path d="m6.545 25.093-.449 4.907h1.904v-5h-1.354c-.052 0-.096.041-.101.093z"/><path d="m53.455 25.093c-.005-.052-.049-.093-.101-.093h-1.354v5h1.904z"/><path d="m6 45.279 2.316.772c.379.126.646.467.68.865l.591 7.087c.188 2.241 2.095 3.996 4.343 3.996h7.857c1.807 0 3.446-1.137 4.08-2.828l1.17-3.119c.462-1.228 1.652-2.053 2.963-2.053s2.501.825 2.963 2.053l1.17 3.119c.634 1.691 2.273 2.828 4.08 2.828h7.857c2.248 0 4.155-1.755 4.343-3.996l.591-7.087c.033-.398.301-.739.68-.865l2.316-.772v-2.279h-19.5c-.275 0-.5.225-.5.5 0 1.379-1.121 2.5-2.5 2.5h-3c-1.379 0-2.5-1.121-2.5-2.5 0-.275-.225-.5-.5-.5h-19.5zm37.707 2.014c.391.391.391 1.023 0 1.414l-5 5c-.195.195-.451.293-.707.293s-.512-.098-.707-.293c-.391-.391-.391-1.023 0-1.414l5-5c.391-.391 1.023-.391 1.414 0zm-7.414 0 1-1c.391-.391 1.023-.391 1.414 0s.391 1.023 0 1.414l-1 1c-.195.195-.451.293-.707.293s-.512-.098-.707-.293c-.391-.391-.391-1.023 0-1.414zm-15.586 0c.391.391.391 1.023 0 1.414l-5 5c-.195.195-.451.293-.707.293s-.512-.098-.707-.293c-.391-.391-.391-1.023 0-1.414l5-5c.391-.391 1.023-.391 1.414 0zm-7.414 0 1-1c.391-.391 1.023-.391 1.414 0s.391 1.023 0 1.414l-1 1c-.195.195-.451.293-.707.293s-.512-.098-.707-.293c-.391-.391-.391-1.023 0-1.414z"/><path d="m10.064 35.373c.887 1.034 2.177 1.627 3.539 1.627h32.793c1.362 0 2.652-.593 3.538-1.627l2.892-3.373h-45.652l2.891 3.373z"/><path d="m29 8h2c.552 0 1-.448 1-1v-4.5s0-.006 0-.006c-.304-.174-.977-.494-1.999-.494s-1.695.32-2.006.512l.006 4.488c0 .552.448 1 1 1z"/><path d="m41 8.267v21.733h9v-6c0-9.267-5.13-13.703-9-15.733z"/><path d="m10 24v6h9v-21.733c-3.87 2.031-9 6.466-9 15.733z"/><path d="m21.72 5.647c-.444.242-.72.711-.72 1.223v23.13h18v-23.13c0-.512-.275-.98-.72-1.223-.961-.525-2.432-1.189-4.28-1.63v2.983c0 1.654-1.346 3-3 3h-2c-1.654 0-3-1.346-3-3v-2.983c-1.849.441-3.319 1.105-4.28 1.63z"/></svg>