<svg id="Capa_1" enable-background="new 0 0 477.995 477.995" viewBox="0 0 477.995 477.995" xmlns="http://www.w3.org/2000/svg"><g><path d="m366.827 128.546c23.945 22.921 42.837 64.879 42.837 140.339 0 62.515-13.073 108.126-38.835 135.962 4.799 2.597 9.218 5.841 13.133 9.643 4.188-1.195 8.495-1.922 12.843-2.167 53.82-15.838 81.126-62.643 81.126-139.17 0-111.062-57.728-140.801-111.104-144.607z"/><path d="m328.853 398.925c7.921-1.772 16.121-1.912 24.098-.41 26.291-23.586 39.646-67.132 39.646-129.63 0-96.299-33.331-149.333-93.867-149.333-3.319 0-6.426.119-9.438.307 18.185 26.206 26.505 73.079 26.505 144.759 0 52.113-4.617 91.034-13.986 118.511 10.878 1.095 20.746 6.858 27.042 15.796z"/><path d="m81.131 412.297c4.369.258 8.695.996 12.902 2.202 3.921-3.799 8.343-7.046 13.141-9.651-25.771-27.836-38.844-73.446-38.844-135.962 0-75.46 18.893-117.419 42.837-140.339-53.375 3.805-111.103 33.544-111.103 144.605 0 76.493 27.307 123.281 81.067 139.145z"/><path d="m179.264 119.552c-60.535 0-93.867 53.035-93.867 149.333 0 62.498 13.355 106.044 39.646 129.621 3.614-.673 7.281-1.015 10.957-1.024 4.42-.005 8.827.479 13.141 1.442 6.297-8.938 16.164-14.701 27.042-15.795-9.37-27.477-13.986-66.398-13.986-118.511 0-71.68 8.32-118.554 26.505-144.759-3.013-.188-6.119-.307-9.438-.307z"/><path d="m238.997 111.019c-17.877 0-59.733 0-59.733 153.6 0 55.646 5.564 96.427 16.41 121.643.905.41 1.818.785 2.688 1.254 24.875-15.496 56.397-15.496 81.271 0 .853-.469 1.783-.853 2.688-1.254 10.846-25.216 16.41-65.997 16.41-121.643 0-153.6-41.814-153.6-59.734-153.6z"/><path d="m255.065 0c-14.893 16.124-26.005 35.363-32.529 56.32-4.782 17.788-14.206 33.986-27.307 46.933 2.884.282 5.649.666 8.337 1.118 10.406-7.144 22.814-10.793 35.43-10.419 12.61-.373 25.011 3.273 35.413 10.411 1.826-.307 3.695-.575 5.606-.802-15.35-11.941-24.496-30.169-24.892-49.613-.968-14.993 3.555-29.826 12.723-41.728z"/><path d="m456.828 444.237c-4.948-.866-10.04-.313-14.686 1.596-3.401 1.382-7.306.434-9.694-2.355-5.929-7.002-14.084-11.753-23.1-13.457-8.254-1.633-16.804-.854-24.627 2.244-3.426 1.389-7.357.414-9.737-2.415-8.196-9.723-20.273-15.324-32.99-15.3-4.877-.019-9.721.816-14.31 2.466-4.255 1.554-8.983-.488-10.769-4.651-3.292-7.572-10.781-12.453-19.038-12.407-4.779-.002-9.418 1.61-13.167 4.574-3.062 2.426-7.385 2.447-10.47.051-20.889-15.65-49.596-15.65-70.485 0-3.092 2.378-7.402 2.357-10.47-.051-3.749-2.964-8.388-4.576-13.167-4.574-8.257-.046-15.746 4.835-19.038 12.407-1.786 4.163-6.514 6.205-10.769 4.651-4.59-1.65-9.433-2.485-14.31-2.466-12.717-.024-24.793 5.577-32.99 15.3-2.363 2.808-6.256 3.79-9.668 2.441-6.526-2.637-13.602-3.619-20.599-2.859-10.526 1.073-20.238 6.143-27.136 14.165-2.411 2.791-6.342 3.716-9.745 2.295-4.604-1.985-9.689-2.578-14.626-1.707-12.597 2.785-21.465 14.087-21.173 26.983-.076 3.694 2.858 6.75 6.552 6.825.029.001.058.001.087.001h464.589c3.676-.009 6.648-2.997 6.639-6.673 0-.003 0-.006 0-.009.297-12.893-8.527-24.214-21.103-27.075z"/></g><g/><g/><g/><g/><g/><g/><g/><g/><g/><g/><g/><g/><g/><g/><g/></svg>