<?xml version="1.0" encoding="UTF-8"?>
<svg xmlns="http://www.w3.org/2000/svg" id="icons" viewBox="0 0 60 60" width="512" height="512"><rect x="54" y="47" width="4" height="3"/><path d="M57.783,43.977,36.432,39.231A8.213,8.213,0,0,1,38.214,23H53.949a38.417,38.417,0,0,0-3.5-7H42a2,2,0,0,0-2,2v2a1,1,0,0,1-2,0V18a4,4,0,0,1,4-4h8.682a.9.9,0,0,0,.356-.517.859.859,0,0,0-.161-.729C44.632,4.816,34.65,2,28,2A26.029,26.029,0,0,0,2,28c0,2.272.244,7.972,2.511,11.788a5.944,5.944,0,0,0,3.808,2.706c23.89,5.444,38.662,12.513,43.9,15.3a1.759,1.759,0,0,0,2.365-.712L57.329,52H54a2,2,0,0,1-2-2V47a2,2,0,0,1,2-2h4V44a.939.939,0,0,1-.212-.043ZM28,6a21.935,21.935,0,0,0-14.8,5.739,1,1,0,1,1-1.347-1.478A23.934,23.934,0,0,1,28,4a1,1,0,0,1,0,2Z"/><path d="M32,31.214a6.175,6.175,0,0,0,4.865,6.064L56.986,41.75A57.184,57.184,0,0,0,54.64,25H38.214A6.22,6.22,0,0,0,32,31.214Zm18.293-3.921a1,1,0,0,1,1.414,0l2,2a1,1,0,1,1-1.414,1.414l-2-2A1,1,0,0,1,50.293,27.293Zm-4,2a1,1,0,0,1,1.414,0l5,5a1,1,0,1,1-1.414,1.414l-5-5A1,1,0,0,1,46.293,29.293ZM41,30.5A3.5,3.5,0,1,1,37.5,27,3.5,3.5,0,0,1,41,30.5Z"/><circle cx="37.5" cy="30.5" r="1.5"/></svg>
