<svg height="512" viewBox="0 0 52 56" width="512" xmlns="http://www.w3.org/2000/svg"><g id="040---High-Vis-Jacket"><path id="Path" d="m44.8 40.941.247 1.847 6.36-.634-.174-1.859z"/><path id="Path" d="m47.014 49.988 4.113-.51c.5301849-.0692045.9121334-.5432259.867-1.076l-.4-4.257-6.283.627.581 4.356c.0725453.5472008.5747443.9321305 1.122.86z"/><path id="Path" d="m7.199 40.941-6.432-.646-.174 1.859 6.36.634z"/><path id="Path" d="m1.866 28.59-.912 9.71 6.51.654 1.936-14.548-6.362-1.417-.7 2.793c-.2328884.9217213-.39073782 1.8607916-.472 2.808z"/><path id="Path" d="m.006 48.4c-.04461102.5320634.3366359 1.0053203.866 1.075l4.111.51c.26389726.0354428.53103266-.0358234.74220758-.1980058.21117492-.1621823.34894959-.401887.38279242-.6659942l.581-4.352-6.283-.627z"/><path id="Path" d="m44.812 11.123-7.812-3.473v13.35h3v-5c0-.5522847.4477153-1 1-1s1 .4477153 1 1v2.753l5.593-1.246-1.093-4.375c-.228346-.8912781-.8494165-1.6304551-1.688-2.009z"/><path id="Path" d="m42.112 20.776.219 1.639 6.146-1.368-.4-1.6z"/><path id="Path" d="m49.661 25.79-.7-2.8-6.361 1.416 1.94 14.552 6.51-.654-.912-9.71c-.0823905-.9460949-.2419209-1.8838796-.477-2.804z"/><path id="Rectangle" d="m27 23h13v2h-13z"/><path id="Path" d="m19.659 2.133c-.3264312.36310403-.3429178.90885366-.039 1.291l6.38 7.976 6.378-7.972c.3058575-.38046079.2901777-.92671012-.037-1.289-.861-.98-2.66-2.139-6.341-2.139s-5.48 1.159-6.341 2.133z"/><path id="Path" d="m25 13.352-4-4.999v12.647h4z"/><path id="Rectangle" d="m27 27h13v17h-13z"/><path id="Rectangle" d="m12 23h13v2h-13z"/><path id="Rectangle" d="m27 46h13v2h-13z"/><path id="Path" d="m27 56h12c.5522847 0 1-.4477153 1-1v-5h-13z"/><path id="Path" d="m27 13.352v7.648h4v-12.647z"/><path id="Path" d="m17 21h2v-15.128l-2 .889z"/><path id="Shape" d="m25 27h-13v17h13zm-2 14c0 .5522847-.4477153 1-1 1s-1-.4477153-1-1v-1c0-.5522847.4477153-1 1-1s1 .4477153 1 1zm0-5c0 .5522847-.4477153 1-1 1s-1-.4477153-1-1v-1c0-.5522847.4477153-1 1-1s1 .4477153 1 1zm0-5c0 .5522847-.4477153 1-1 1s-1-.4477153-1-1v-1c0-.5522847.4477153-1 1-1s1 .4477153 1 1z"/><path id="Path" d="m33 21h2v-14.239l-2-.889z"/><path id="Path" d="m3.523 21.047 6.146 1.369.219-1.64-5.965-1.329z"/><path id="Path" d="m10 16c0-.5522847.4477153-1 1-1s1 .4477153 1 1v5h3v-13.35l-7.813 3.474c-.8387944.3785178-1.45967451 1.1182742-1.687 2.01l-1.093 4.373 5.593 1.246z"/><path id="Rectangle" d="m12 46h13v2h-13z"/><path id="Path" d="m13 56h12v-6h-13v5c0 .5522847.4477153 1 1 1z"/></g></svg>