<svg id="Icons" viewBox="0 0 60 60" xmlns="http://www.w3.org/2000/svg"><circle cx="56.5" cy="31.5" r="1.5"/><path d="m38.969 16.111c.197.129.445.181.685.13.237-.047.44-.182.571-.381l.943-1.415c.201-.301.552-.469.908-.442.359.027.677.247.83.574l6.731 14.423h4.421c.222-.217.479-.393.751-.545l-10.609-16.392c-.45-.657-1.219-1.062-2.04-1.062-.947 0-1.805.53-2.238 1.383l-1.267 2.552c-.07.138-.105.279-.105.415 0 .3.156.585.419.762z"/><circle cx="3.5" cy="31.5" r="1.5"/><path d="m4 40c0 4.963 4.038 9 9 9h9c2.206 0 4-1.794 4-4v-2c0-1.066.417-2.071 1.173-2.827.756-.757 1.76-1.173 2.827-1.173 2.206 0 4 1.794 4 4v2c0 2.206 1.794 4 4 4h9c4.963 0 9-4.037 9-9v-5.051c-1.692-.245-3-1.691-3-3.449 0-.171.027-.335.051-.5h-16.051c-1.06 0-2.055.573-2.598 1.497-.538.926-1.536 1.503-2.603 1.503h-3.6c-1.067 0-2.065-.578-2.605-1.508-.541-.919-1.536-1.492-2.595-1.492h-16.05c.024.165.051.329.051.5 0 1.758-1.308 3.204-3 3.449z"/><path d="m5.942 29h4.421l6.731-14.423c.153-.327.47-.547.831-.574.368-.025.708.143.908.442l.94 1.41c.276.419.843.526 1.268.25.254-.171.41-.455.41-.756 0-.136-.035-.277-.098-.399l-1.278-2.576c-.429-.844-1.287-1.374-2.234-1.374-.822 0-1.59.405-2.055 1.084l-10.596 16.371c.273.152.53.329.751.545z"/></svg>