<svg id="Icons" height="512" viewBox="0 0 60 60" width="512" xmlns="http://www.w3.org/2000/svg"><path d="m9 15v30a6.006 6.006 0 0 0 6 6h26a6.006 6.006 0 0 0 6-6v-30a6.006 6.006 0 0 0 -6-6h-26a6.006 6.006 0 0 0 -6 6zm9.168 8.445a1 1 0 0 1 1.387-.277l5.794 3.86a3.945 3.945 0 0 1 5.8.537l10.454-4.484a1 1 0 0 1 .79 1.838l-10.453 4.481a4.066 4.066 0 0 1 .06.6 4 4 0 0 1 -8 0 3.95 3.95 0 0 1 .238-1.309l-5.793-3.859a1 1 0 0 1 -.277-1.387z"/><path d="m49 17v8h1a1 1 0 0 0 1-1v-6a1 1 0 0 0 -1-1z"/><path d="m17.33 3.353a21.778 21.778 0 0 1 -1.713 3.647h24.766a21.753 21.753 0 0 1 -1.714-3.654 2.006 2.006 0 0 0 -1.887-1.346l-17.568.006a2.008 2.008 0 0 0 -1.884 1.347z"/><path d="m38.671 56.648a21.664 21.664 0 0 1 1.712-3.648h-24.766a21.741 21.741 0 0 1 1.714 3.653 2.009 2.009 0 0 0 1.887 1.347l17.568-.007a2.008 2.008 0 0 0 1.885-1.345z"/><circle cx="28" cy="30" r="2"/></svg>