<svg id="icons" height="512" viewBox="0 0 60 60" width="512" xmlns="http://www.w3.org/2000/svg"><path d="m16.218 52.233c-4.646 3.436-8.552 4.288-11.282 4.288a12.647 12.647 0 0 1 -1.267-.064l.524.707a1.924 1.924 0 0 0 1.387.775 19.167 19.167 0 0 0 13.114-3.984l12.882-9.524a27.768 27.768 0 0 1 1.443-7.511 35.489 35.489 0 0 0 -9.519 8.325 39.5 39.5 0 0 1 -7.282 6.988z"/><path d="m41.86 2.382a2.028 2.028 0 0 0 -2.339 0 1.9 1.9 0 0 0 -.748 1.759c.275 2.5.268 7.047-2.866 9.367a13 13 0 0 1 -6.107 2.422l-6.723 19.26a7.824 7.824 0 0 1 -4.255 4.588l-9 3.912-6.131 5.242a4.85 4.85 0 0 0 -1.414 5.224c1.576.465 6.314 1.229 12.751-3.53a37.857 37.857 0 0 0 6.95-6.679c2.513-2.95 5.12-6 12.255-10.075a28.228 28.228 0 0 1 13.155-13.392 4.864 4.864 0 0 1 1.958-3.688l3.237-2.392a40.511 40.511 0 0 0 -10.723-12.018z"/><path d="m18.544 34.729-5.465 1.561-1.927 4.641 6.872-2.987a5.811 5.811 0 0 0 3.164-3.411l6.446-18.473a16.576 16.576 0 0 1 -2.443-.2 4.658 4.658 0 0 0 -.746-.065 4.275 4.275 0 0 0 -2.545.826 4.23 4.23 0 0 0 -1.393 1.786l-.43 1.036 2.094-.6a1 1 0 0 1 .547 1.924l-3.618 1.033-1.026 2.471 2.707-.773a1 1 0 1 1 .549 1.924l-4.236 1.209-1.028 2.469 3.321-.947a1 1 0 0 1 .549 1.924l-4.85 1.383-1.026 2.47 3.94-1.124a1 1 0 0 1 .549 1.923z"/><path d="m20.581 9.3a.825.825 0 0 0 -.769.793l-.5 6.38a6.353 6.353 0 0 1 1.4-1.463 6.254 6.254 0 0 1 3.735-1.22 6.508 6.508 0 0 1 1.064.091 15.429 15.429 0 0 0 1.659.164 9.361 9.361 0 0 0 -1.511-2.919c-1.251-1.686-3.453-1.916-5.078-1.826z"/><path d="m57.479 20.748a11.019 11.019 0 0 1 -3.962-4.554l-2.982 2.206a2.892 2.892 0 0 0 -.95 3.425l2.936 7.108c2.787-2.121 4.811-4.646 5.428-6.8a1.219 1.219 0 0 0 -.47-1.385z"/><path d="m47.727 22.555a25.956 25.956 0 0 0 -14.05 20.322l17.191-12.711-3.132-7.58c-.004-.01-.005-.021-.009-.031zm-5.584 11.585a1.141 1.141 0 0 1 -.173.014 1 1 0 0 1 -.985-.828l-.374-2.139a1 1 0 1 1 1.971-.344l.374 2.139a1 1 0 0 1 -.813 1.158zm3.9-2.888a1.028 1.028 0 0 1 -.173.015 1 1 0 0 1 -.984-.829l-.369-2.138a1 1 0 0 1 1.97-.344l.373 2.14a1 1 0 0 1 -.813 1.156z"/></svg>