<svg id="Icons" viewBox="0 0 60 60" xmlns="http://www.w3.org/2000/svg"><path d="m40.744 4.147.186 1.293 9.051 6.576 1.268-.219c-2.837-3.307-6.426-5.949-10.506-7.65z"/><path d="m52.661 13.582-1.981.342-.635 9.562 6.134 7.363 1.819-.895c-.01-6.112-1.992-11.767-5.338-16.372z"/><path d="m57.903 32.23-1.168.574-3.457 10.641.606 1.15c2.242-3.655 3.662-7.862 4.018-12.365z"/><path d="m48.651 24.937-7.878 1.905-3.665 10.996 5.069 7.204 9.24-2.338 3.376-10.394z"/><path d="m51.68 44.7-9.291 2.352-5.106 8.109 1.41 1.451c5.639-1.847 10.493-5.436 13.925-10.132l-.938-1.779z"/><path d="m21.307 56.612 1.41-1.451-5.106-8.109-9.291-2.352-.938 1.779c3.431 4.696 8.285 8.286 13.925 10.132z"/><path d="m30 2c-3.003 0-5.895.481-8.609 1.36l-.289 2.005 8.897 3.559 8.897-3.559-.289-2.005c-2.714-.879-5.606-1.36-8.609-1.36z"/><path d="m20.141 7.133-8.842 6.424.629 9.463 7.829 1.893 9.243-7.394v-6.842z"/><path d="m30 19.28-8.831 7.066 3.552 10.654h10.558l3.552-10.654z"/><path d="m23.496 57.229c2.089.499 4.264.771 6.504.771s4.415-.272 6.504-.771l-.909-.935h-11.188l-.909.935z"/><path d="m35.482 39h-10.964l-5.073 7.211 5.09 8.083h10.93l5.09-8.083z"/><path d="m17.823 45.042 5.069-7.204-3.665-10.996-7.878-1.905-6.142 7.373 3.376 10.394z"/><path d="m6.721 43.446-3.457-10.641-1.168-.574c.357 4.503 1.777 8.71 4.018 12.365l.606-1.15z"/><path d="m2.001 29.954 1.819.895 6.134-7.363-.635-9.562-1.981-.342c-3.345 4.605-5.328 10.26-5.338 16.372z"/><path d="m48.072 23.02.629-9.463-8.842-6.424-8.859 3.544v6.842l9.243 7.394z"/><path d="m10.019 12.016 9.051-6.576.186-1.293c-4.079 1.701-7.669 4.343-10.506 7.65l1.268.219z"/></svg>