<svg id="Icons" height="512" viewBox="0 0 60 60" width="512" xmlns="http://www.w3.org/2000/svg"><path d="m23.919 19.862a14.507 14.507 0 0 0 -1.819 4.138h15.8a14.507 14.507 0 0 0 -1.815-4.138 35.423 35.423 0 0 1 -2.367-4.862h-7.436a35.423 35.423 0 0 1 -2.363 4.862z"/><path d="m22 26h16v8h-16z"/><path d="m22 55a2.994 2.994 0 0 0 3 3h10a3 3 0 0 0 3-3 19.412 19.412 0 0 0 -.48-4.3 21.3 21.3 0 0 1 -.52-4.7 37.6 37.6 0 0 1 .554-6.3 33.28 33.28 0 0 0 .417-3.7h-15.942a33.28 33.28 0 0 0 .417 3.7 37.6 37.6 0 0 1 .554 6.3 21.3 21.3 0 0 1 -.52 4.7 19.412 19.412 0 0 0 -.48 4.3z"/><path d="m33.054 13a28.02 28.02 0 0 1 -1.04-7h-4.028a28.02 28.02 0 0 1 -1.04 7z"/><path d="m33 4v-1a1 1 0 0 0 -1-1h-4a1 1 0 0 0 -1 1v1z"/></svg>