<svg id="Icons" viewBox="0 0 60 60" xmlns="http://www.w3.org/2000/svg"><path d="m29 17c0-1.103-.897-2-2-2h-16c-1.103 0-2 .897-2 2v1.816c.273.158.538.33.786.531 1.408 1.146 2.216 2.842 2.216 4.653v6.023c.838-.634 1.869-1.024 2.998-1.024h11c1.13 0 2.162.391 3 1.026v-13.026z"/><path d="m15 31c-1.648 0-2.987 1.335-2.998 2.981v1.019h16.998v-1c0-1.654-1.346-3-3-3z"/><path d="m8 45h4.382l1-2h-5.382z"/><path d="m47.998 33.981c-.011-1.645-1.35-2.981-2.998-2.981h-11c-1.654 0-3 1.346-3 3v1h16.998z"/><path d="m47.998 24.001c0-1.812.808-3.507 2.216-4.653.248-.202.514-.373.786-.531v-1.817c0-1.103-.897-2-2-2h-16c-1.103 0-2 .897-2 2v13.026c.838-.635 1.87-1.026 3-1.026h11c1.129 0 2.16.39 2.998 1.024z"/><path d="m5.199 27.92c.467.094.804.504.804.98v11.1c0 .552.448 1 1 1h45.994c.552 0 1-.448 1-1v-11.1c0-.477.337-.887.804-.98 2.125-.425 3.504-2.46 3.14-4.634-.269-1.558-1.531-2.874-3.068-3.196-1.232-.253-2.439.031-3.396.809-.939.765-1.479 1.896-1.479 3.103v9.98c0 .007.002.013.002.019h-.002v1c0 1.103-.897 2-2 2h-35.996c-1.103 0-2-.897-2-2v-1h-.002c0-.007.002-.013.002-.019v-9.98c0-1.207-.539-2.338-1.479-3.103-.728-.592-1.601-.899-2.521-.899-.289 0-.582.03-.877.092-1.535.321-2.798 1.638-3.067 3.2-.363 2.169 1.016 4.204 3.141 4.629z"/><path d="m47.618 45h4.382v-2h-5.382z"/></svg>