<svg id="Icons" height="512" viewBox="0 0 60 60" width="512" xmlns="http://www.w3.org/2000/svg"><path d="m6.2 57.28 17.958-17.959a.148.148 0 0 0 .045-.106.15.15 0 0 0 -.044-.106l-3.266-3.266a.158.158 0 0 0 -.107-.045.154.154 0 0 0 -.106.045l-17.96 17.957a2.46 2.46 0 0 0 3.48 3.48z"/><path d="m33.9 27.953a5.672 5.672 0 0 1 4.9-1.573l5.1.854a3.632 3.632 0 0 0 3.156-1.012l10.562-10.561a1.312 1.312 0 0 0 0-1.852l-11.427-11.427a1.314 1.314 0 0 0 -1.852 0l-10.561 10.561a3.642 3.642 0 0 0 -1.012 3.157l.853 5.1a5.647 5.647 0 0 1 -1.572 4.9l-9.034 9.034 1.852 1.852zm18.6-13.927a1 1 0 0 1 0 1.414l-7.345 7.345a1 1 0 0 1 -1.414-1.414l7.345-7.345a1 1 0 0 1 1.414 0zm-3.265-3.264a1 1 0 0 1 0 1.414l-7.344 7.345a1 1 0 1 1 -1.415-1.415l7.345-7.344a1 1 0 0 1 1.417 0zm-12.023 4.08 7.348-7.342a1 1 0 0 1 1.414 1.414l-7.345 7.345a1 1 0 1 1 -1.414-1.414z"/></svg>