<svg id="Icons" height="512" viewBox="0 0 60 60" width="512" xmlns="http://www.w3.org/2000/svg"><path d="m5.823 58h.062a3.764 3.764 0 0 0 2.7-1.187l25.993-27.385a10.547 10.547 0 0 1 -4.006-4.006l-27.384 25.993a3.769 3.769 0 0 0 -1.188 2.7 3.815 3.815 0 0 0 3.823 3.885zm-.712-4.525.182-.182a1 1 0 0 1 1.414 1.414l-.182.182a1 1 0 1 1 -1.414-1.414z"/><path d="m48.244 2h-.007a17.22 17.22 0 0 0 -11.867 5.37 17.2 17.2 0 0 0 -5.37 11.864 9.7 9.7 0 0 0 2.714 7.05 9.7 9.7 0 0 0 7.052 2.716 17.2 17.2 0 0 0 11.862-5.369 17.219 17.219 0 0 0 5.372-11.875 9.683 9.683 0 0 0 -2.714-7.04 9.685 9.685 0 0 0 -7.042-2.716zm2.819 20.056a16.391 16.391 0 0 1 -9.667 4.9c-.034 0-.066.005-.1.005a1 1 0 0 1 -.1-2 14.579 14.579 0 0 0 8.447-4.323c4.293-4.294 5.659-10.469 2.922-13.215s-8.919-1.369-13.213 2.924a14.579 14.579 0 0 0 -4.317 8.453 1 1 0 1 1 -1.99-.194 16.391 16.391 0 0 1 4.9-9.667c5.135-5.139 12.48-6.475 16.04-2.926s2.215 10.908-2.922 16.043z"/></svg>