<svg id="Icons" height="512" viewBox="0 0 60 60" width="512" xmlns="http://www.w3.org/2000/svg"><path d="m30 34c.738 0 1-1.077 1-2a1 1 0 0 0 -2 0c0 .923.262 2 1 2z"/><path d="m30 50c.738 0 1-1.077 1-2a1 1 0 0 0 -2 0c0 .923.262 2 1 2z"/><path d="m43 32c.738 0 1-1.077 1-2a1 1 0 0 0 -2 0c0 .923.262 2 1 2z"/><path d="m22 43c.738 0 1-1.077 1-2a1 1 0 0 0 -2 0c0 .923.262 2 1 2z"/><path d="m38 43c.738 0 1-1.077 1-2a1 1 0 0 0 -2 0c0 .923.262 2 1 2z"/><path d="m17 32c.738 0 1-1.077 1-2a1 1 0 0 0 -2 0c0 .923.262 2 1 2z"/><path d="m14.3 16.863c-2.879 2.058-4.3 5.037-4.3 9.116 0 16.933 10.32 26.639 16.472 30.921a6.208 6.208 0 0 0 7.057 0c6.151-4.282 16.471-13.988 16.471-30.921 0-4.076-1.421-7.059-4.3-9.116a2.067 2.067 0 0 1 -1.019.347 23.148 23.148 0 0 1 -5.145-.244 16.291 16.291 0 0 1 .8 1.767 2.094 2.094 0 0 1 -2.55 2.755 13.154 13.154 0 0 1 -3.753-1.717 8.8 8.8 0 0 1 -2.575 5.307 2.1 2.1 0 0 1 -2.905.007 8.811 8.811 0 0 1 -2.583-5.315 13.136 13.136 0 0 1 -3.754 1.718 2.094 2.094 0 0 1 -2.551-2.753 16.437 16.437 0 0 1 .8-1.77 23.031 23.031 0 0 1 -5.145.245 2.057 2.057 0 0 1 -1.02-.347zm28.7 10.137a3 3 0 0 1 3 3c0 2.763-1.507 4-3 4s-3-1.237-3-4a3 3 0 0 1 3-3zm-5 11a3 3 0 0 1 3 3c0 2.763-1.507 4-3 4s-3-1.237-3-4a3 3 0 0 1 3-3zm-8-9a3 3 0 0 1 3 3c0 2.763-1.507 4-3 4s-3-1.237-3-4a3 3 0 0 1 3-3zm0 16a3 3 0 0 1 3 3c0 2.763-1.507 4-3 4s-3-1.237-3-4a3 3 0 0 1 3-3zm-8-7a3 3 0 0 1 3 3c0 2.763-1.507 4-3 4s-3-1.237-3-4a3 3 0 0 1 3-3zm-5-11a3 3 0 0 1 3 3c0 2.763-1.507 4-3 4s-3-1.237-3-4a3 3 0 0 1 3-3z"/><path d="m31.911 2.016a.107.107 0 0 0 -.1-.008c-.953 1.091-2.581 3.575-2.8 8a1 1 0 0 1 -1 .951h-.011c-2.309-.05-8.117.251-12.631 4.091 0 .156.031.158.054.159 3.251.173 5.74-.2 7.013-1.027a1 1 0 0 1 1.273 1.523 11.93 11.93 0 0 0 -2.174 3.74.091.091 0 0 0 .023.1c2.5-.7 4.1-1.743 4.49-2.847a1 1 0 0 1 .944-.67.972.972 0 0 1 .249.032 1 1 0 0 1 .738 1.134 7.654 7.654 0 0 0 1.96 6.446.12.12 0 0 0 .133-.007 7.648 7.648 0 0 0 1.951-6.433 1 1 0 0 1 1.931-.5c.386 1.1 1.99 2.151 4.4 2.871.13-.07.116-.109.11-.126a11.921 11.921 0 0 0 -2.173-3.738 1 1 0 0 1 1.273-1.523c1.273.831 3.759 1.2 7.012 1.027.023 0 .057 0 .078-.065-4.494-3.9-10.3-4.219-12.6-4.185a1.054 1.054 0 0 1 -.743-.312 1 1 0 0 1 -.272-.757 10.386 10.386 0 0 1 2.471-6.462z"/></svg>