<svg id="Icons" viewBox="0 0 60 60" xmlns="http://www.w3.org/2000/svg"><path d="m17 57c0 .552.448 1 1 1h3c.552 0 1-.448 1-1v-1h-5z"/><path d="m21 14h2v-8c0-1.103.897-2 2-2h10c1.103 0 2 .897 2 2v8h2v-8c0-2.206-1.794-4-4-4h-10c-2.206 0-4 1.794-4 4z"/><path d="m38 57c0 .552.448 1 1 1h3c.552 0 1-.448 1-1v-1h-5z"/><path d="m16 54h28c1.103 0 2-.897 2-2v-34c0-1.103-.897-2-2-2h-28c-1.103 0-2 .897-2 2v34c0 1.103.897 2 2 2zm25-32c0-.552.447-1 1-1s1 .448 1 1v26c0 .553-.447 1-1 1s-1-.447-1-1zm-8 0c0-.552.447-1 1-1s1 .448 1 1v26c0 .553-.447 1-1 1s-1-.447-1-1zm-8 0c0-.552.447-1 1-1s1 .448 1 1v26c0 .553-.447 1-1 1s-1-.447-1-1zm-8 0c0-.552.447-1 1-1s1 .448 1 1v26c0 .553-.447 1-1 1s-1-.447-1-1z"/></svg>