<svg id="Icons" height="512" viewBox="0 0 60 60" width="512" xmlns="http://www.w3.org/2000/svg"><path d="m8 54a4 4 0 0 0 4 4h36a4 4 0 0 0 4-4v-48a4 4 0 0 0 -4-4h-36a4 4 0 0 0 -4 4zm2-48a2 2 0 0 1 2-2h36a2 2 0 0 1 2 2v48a2 2 0 0 1 -2 2h-36a2 2 0 0 1 -2-2z"/><path d="m48 6h-36v48h36zm-32.707 3.459 1.167-1.166a1 1 0 1 1 1.414 1.414l-1.167 1.167a1 1 0 0 1 -1.414-1.415zm.707 7.541a1 1 0 0 1 -.707-1.707l7-7a1 1 0 0 1 1.414 1.414l-7 7a1 1 0 0 1 -.707.293zm21 35h-14a1 1 0 0 1 0-2h14a1 1 0 0 1 0 2z"/></svg>