<svg id="icons" height="512" viewBox="0 0 60 60" width="512" xmlns="http://www.w3.org/2000/svg"><path d="m54.013 5.987a14.186 14.186 0 0 0 -10.213-3.987 22.281 22.281 0 0 0 -15.41 6.836 22.737 22.737 0 0 0 -6.74 13.508 14.568 14.568 0 0 0 3.887 12.119 14.573 14.573 0 0 0 12.119 3.887 22.737 22.737 0 0 0 13.506-6.737c7.851-7.85 9.13-19.346 2.851-25.626zm.874 4.809a12.879 12.879 0 0 1 1.079 4.632l-3.383 3.383-2.855-2.855zm-17.247 5.881-2.856-2.855 4.991-4.991 2.855 2.856zm6.4-3.576 2.86 2.855-4.99 4.99-2.855-2.855zm-7.818 4.99-4.99 4.989-2.855-2.855 4.989-4.989zm1.414 1.414 2.855 2.855-4.989 4.99-2.852-2.856zm4.269 4.269 2.855 2.856-4.989 4.989-2.851-2.855zm1.414-1.414 4.99-4.99 2.856 2.855-4.991 4.991zm9.257-14.936a11.2 11.2 0 0 1 1.283 1.576l-5.546 5.545-2.855-2.855 5.542-5.549a11.2 11.2 0 0 1 1.576 1.283zm-8-3.39a12.9 12.9 0 0 1 4.624 1.079l-5.159 5.159-2.852-2.855zm-2.949.121-1.853 1.845-1.167-1.165a18.2 18.2 0 0 1 3.016-.68zm-5.068 1.461 1.8 1.8-4.99 4.99-2.818-2.818a22.1 22.1 0 0 1 6.008-3.972zm-7.421 5.384 2.818 2.818-4.989 4.989-1.792-1.792a22.121 22.121 0 0 1 3.963-6.015zm-4.747 8.059 1.162 1.162-1.832 1.832a18.174 18.174 0 0 1 .67-2.99zm.278 10.584a13.014 13.014 0 0 1 -1.069-4.631l3.372-3.373 2.855 2.855zm2.3 3.38a11.014 11.014 0 0 1 -1.281-1.575l5.544-5.544 2.856 2.856-5.551 5.55a10.99 10.99 0 0 1 -1.564-1.283zm8.02 3.377a13.027 13.027 0 0 1 -4.632-1.077l5.149-5.149 2.855 2.855zm2.965-.136 1.821-1.821 1.156 1.157a18.145 18.145 0 0 1 -2.977.668zm5.038-1.432-1.8-1.8 4.989-4.989 2.814 2.813a22.187 22.187 0 0 1 -6.003 3.98zm7.42-5.387-2.819-2.815 4.99-4.99 1.8 1.8a22.1 22.1 0 0 1 -3.971 6.009zm4.753-8.056-1.165-1.163 1.848-1.849a18.2 18.2 0 0 1 -.683 3.016z"/><path d="m4.849 52.3a1 1 0 0 1 -.707.293h-1.006l-1.136 1.124 4.268 4.283 1.142-1.128v-1.015a1 1 0 0 1 .29-.707l9.249-9.25v-.014l-2.838-2.838z"/><path d="m21.9 33.054a23.894 23.894 0 0 1 -5.616 9.223l-.06.061 1.435 1.435.06-.06a23.917 23.917 0 0 1 9.243-5.623 14.85 14.85 0 0 1 -5.062-5.036z"/></svg>