<svg id="Icons" height="512" viewBox="0 0 60 60" width="512" xmlns="http://www.w3.org/2000/svg"><path d="m30 14c-11.4 0-25 3.219-25 18.551a25.256 25.256 0 0 0 25 25.449 25.256 25.256 0 0 0 25-25.449c0-8.463-4.337-18.551-25-18.551zm-9.758 5.06a19.545 19.545 0 0 0 -5.9 2.428 11.139 11.139 0 0 0 -5.052 7.7 1 1 0 0 1 -.982.812 1.05 1.05 0 0 1 -.184-.017 1 1 0 0 1 -.8-1.166 13.211 13.211 0 0 1 5.929-9 21.446 21.446 0 0 1 6.506-2.693 1 1 0 1 1 .484 1.94z"/><path d="m30 12a43.865 43.865 0 0 1 13.128 1.765 13.048 13.048 0 0 0 1.392-5.646.82.82 0 0 0 -.221-.591.727.727 0 0 0 -.519-.228 19.717 19.717 0 0 0 -8.035 1.28 1 1 0 0 1 -1.376-.634 11.816 11.816 0 0 0 -3.89-5.771.753.753 0 0 0 -.952-.006 11.832 11.832 0 0 0 -3.9 5.777 1 1 0 0 1 -1.376.634 19.641 19.641 0 0 0 -8.03-1.28.73.73 0 0 0 -.524.229.819.819 0 0 0 -.221.59 13.049 13.049 0 0 0 1.392 5.647 43.865 43.865 0 0 1 13.132-1.766z"/></svg>