<svg id="Icons" height="512" viewBox="0 0 60 60" width="512" xmlns="http://www.w3.org/2000/svg"><path d="m10.2 11.4-2.043-6.691a1 1 0 0 0 -1.249-.665 1 1 0 0 0 -.665 1.248l2.043 6.694z"/><path d="m13.118 20.964 2.049-.625a24.154 24.154 0 0 1 1.784-6.713 3.109 3.109 0 0 0 -3.43-1.149l-7.388 2.259a3.133 3.133 0 0 0 -1.928 4.329l.181.387 4.7-1.433a1 1 0 0 1 .584 1.912l-4.422 1.35 2.208 4.719h8.021a10 10 0 0 1 -.477-3c0-.17.011-.35.016-.525l-1.314.4a1 1 0 0 1 -.584-1.912z"/><path d="m32.4 26a8 8 0 0 0 .6-3c0-5.722-2.849-14-8-14-4.633 0-7.395 6.69-7.906 12.2-.057.62-.094 1.225-.094 1.8a8 8 0 0 0 .6 3h2.825a5 5 0 1 1 9.154 0z"/><path d="m46.653 22.884-4.544.742-.97 2.374h10.825a5.574 5.574 0 0 0 1.714-8.185 1 1 0 0 1 .264-1.438 4.5 4.5 0 0 0 -.742-7.951 3.567 3.567 0 0 0 -.843-.261 1 1 0 0 1 -.76-1.359l.04-.1a3.409 3.409 0 1 0 -6.313-2.586l-.035.089a1 1 0 0 1 -1.515.439 4.632 4.632 0 0 0 -.788-.415 4.511 4.511 0 0 0 -5.85 2.475 4.442 4.442 0 0 0 -.24 2.7 1 1 0 0 1 -.825 1.209 5.583 5.583 0 0 0 -3.491 2.011 23.988 23.988 0 0 1 2.42 10.372 10 10 0 0 1 -.477 3h4.456l1.278-3.128-2.724-3.721a1 1 0 1 1 1.613-1.181l2 2.73 1.839-4.5-2.721-3.717a1 1 0 0 1 1.612-1.183l2 2.726 2.008-4.926a1 1 0 1 1 1.851.755l-2.013 4.927 3.339-.546a1 1 0 0 1 .322 1.975l-4.548.743-1.835 4.5 3.334-.545a1 1 0 0 1 .322 1.975z"/><path d="m14.29 53h31.42c7.362-4.739 12.29-14.343 12.29-24a1 1 0 0 0 -1-1h-54a1 1 0 0 0 -1 1c0 9.657 4.928 19.261 12.29 24z"/><path d="m5.078 13.023c.158-.065.306-.15.472-.2l.824-.252-.632-2.071-1.923-2.7a1 1 0 0 0 -1.8.418.984.984 0 0 0 .163.735z"/><path d="m12.938 10.563c.165-.05.332-.071.5-.105l.127-4.98a.976.976 0 0 0 -.272-.709 1 1 0 0 0 -.7-.315.872.872 0 0 0 -.715.275 1 1 0 0 0 -.31.7l-.085 3.3.634 2.079z"/><path d="m22 24a2.982 2.982 0 0 0 .792 2h4.416a2.991 2.991 0 1 0 -5.208-2z"/><path d="m15 57a1 1 0 0 0 1 1h28a1 1 0 0 0 1-1v-2h-30z"/></svg>