<svg id="Icons" viewBox="0 0 60 60" xmlns="http://www.w3.org/2000/svg"><path d="m57 33h-9c-2.206 0-4 1.794-4 4s1.794 4 4 4h9c.552 0 1-.448 1-1v-6c0-.552-.448-1-1-1z"/><path d="m2 54c0 1.654 1.346 3 3 3h50c.552 0 1-.448 1-1v-13h-8c-3.309 0-6-2.691-6-6s2.691-6 6-6h8v-13c0-.551-.448-1-1-1h-50.21c-1.016 0-1.982-.313-2.79-.895z"/><path d="m2 12.21c0 .746.29 1.446.817 1.973.526.527 1.228.817 1.973.817h43.21v-10.422c0-.467-.205-.907-.563-1.209-.353-.297-.816-.426-1.268-.346l-41.847 6.435c-1.34.227-2.322 1.385-2.322 2.751z"/></svg>