<svg id="Icons" height="512" viewBox="0 0 60 60" width="512" xmlns="http://www.w3.org/2000/svg"><path d="m14 58 .5-2h-2.5v2z"/><path d="m22 46h-11v8h11zm-4 4h-3a1 1 0 0 1 0-2h3a1 1 0 0 1 0 2z"/><path d="m24 46v8h11v-8zm7 4h-3a1 1 0 0 1 0-2h3a1 1 0 0 1 0 2z"/><path d="m49 40v-34h-11v34zm-9-19a1 1 0 0 1 2 0v4a1 1 0 0 1 -2 0z"/><path d="m49 46h-12v8h12zm-5 4h-3a1 1 0 0 1 0-2h3a1 1 0 0 1 0 2z"/><path d="m48 58v-2h-2.5l.5 1.999z"/><path d="m36 40v-34h-12v34zm-10-19a1 1 0 0 1 2 0v4a1 1 0 0 1 -2 0z"/><path d="m10 2v2h40 .002l-.002-2z"/><path d="m10 42h40v2h-40z"/><path d="m22 40v-34h-11v34zm-9-19a1 1 0 0 1 2 0v4a1 1 0 0 1 -2 0z"/></svg>