<svg id="Icons" height="512" viewBox="0 0 60 60" width="512" xmlns="http://www.w3.org/2000/svg"><path d="m2.693 57.216a2.484 2.484 0 0 0 1.8.783 2.829 2.829 0 0 0 2.113-.845l19.471-19.491-3.7-3.7-19.607 19.631a2.61 2.61 0 0 0 -.077 3.622z"/><path d="m45.982 2a16.064 16.064 0 0 0 -11.2 4.845c-5.136 5.141-6.955 11.512-8.057 17.066-.178.907-.319 1.75-.45 2.532-.436 2.6-.792 4.725-2.1 6.478l2.945 2.948c1.749-1.306 3.87-1.663 6.465-2.1.783-.131 1.625-.273 2.534-.453 5.546-1.1 11.909-2.921 17.046-8.064 5.852-5.859 6.488-14.755 1.419-19.83a12.015 12.015 0 0 0 -8.602-3.422zm-16.314 23.5a1 1 0 0 1 -.973-1.231c1.176-4.967 2.64-11.149 7.5-16.014a13.531 13.531 0 0 1 12.123-4.03 1 1 0 0 1 .269 1.857 36.64 36.64 0 0 0 -7.76 6.029 77.2 77.2 0 0 0 -10.321 12.939 1 1 0 0 1 -.838.45zm3.3 2.941a1 1 0 0 1 -1.248-.133 1 1 0 0 1 -.135-1.248 79.124 79.124 0 0 1 10.655-13.528c3.982-3.986 8.044-6.517 10-6.958a1 1 0 0 1 1.2 1.2c-.441 1.956-2.969 6.022-6.95 10.008a79.087 79.087 0 0 1 -13.523 10.663zm21.972-17.527a1 1 0 0 1 .836.781 13.574 13.574 0 0 1 -4.024 12.136c-4.861 4.866-11.036 6.331-16 7.508a1 1 0 0 1 -1.15-.578 1 1 0 0 1 .373-1.232 77.294 77.294 0 0 0 12.925-10.329 36.635 36.635 0 0 0 6.022-7.768.982.982 0 0 1 1.018-.518z"/></svg>