<svg id="Icons" height="512" viewBox="0 0 60 60" width="512" xmlns="http://www.w3.org/2000/svg"><path d="m38.403 47.038c-5.189 2.57-11.617 2.57-16.807 0l1.303 8.887c.176 1.183 1.208 2.075 2.4 2.075h9.4c1.192 0 2.225-.893 2.4-2.077l1.303-8.885z"/><path d="m19.862 11h-1.462c-.313 0-.575.223-.622.53l-1.177 7.793c-.022.173-.089.341-.193.479-2.229 2.956-3.408 6.482-3.408 10.197s1.179 7.239 3.41 10.209c.1.133.164.287.189.451l1.18 7.811c.046.307.308.529.621.529h1.462l-.333-2.275c-.093-.636.175-1.259.7-1.627.525-.37 1.202-.406 1.768-.104 4.885 2.625 11.121 2.625 16.006 0 .566-.303 1.243-.266 1.768.104.525.368.793.991.7 1.627l-.333 2.275h1.462c.313 0 .575-.223.622-.53l1.177-7.793c.022-.173.089-.341.193-.479 2.229-2.956 3.408-6.482 3.408-10.197s-1.179-7.239-3.41-10.209c-.1-.133-.164-.287-.189-.451l-1.18-7.811c-.046-.307-.308-.529-.621-.529h-1.462l.333 2.275c.093.636-.175 1.259-.7 1.627-.525.369-1.202.407-1.768.104-4.885-2.625-11.121-2.625-16.006 0-.564.304-1.242.266-1.768-.104-.525-.368-.793-.991-.7-1.627zm10.138 4c8.271 0 15 6.729 15 15s-6.729 15-15 15-15-6.729-15-15 6.729-15 15-15z"/><path d="m38.403 12.962-1.303-8.887c-.176-1.183-1.208-2.075-2.4-2.075h-9.4c-1.192 0-2.225.893-2.4 2.077l-1.303 8.885c5.189-2.57 11.617-2.57 16.807 0z"/><path d="m19 29c.553 0 1 .447 1 1s-.447 1-1 1h-1.949c.217 2.833 1.341 5.411 3.088 7.447l1.376-1.376c.391-.391 1.023-.391 1.414 0s.391 1.023 0 1.414l-1.376 1.376c2.036 1.747 4.615 2.871 7.447 3.088v-1.949c0-.553.447-1 1-1s1 .447 1 1v1.949c2.833-.217 5.411-1.341 7.447-3.088l-1.376-1.376c-.391-.391-.391-1.023 0-1.414s1.023-.391 1.414 0l1.376 1.376c1.747-2.036 2.871-4.615 3.088-7.447h-1.949c-.553 0-1-.447-1-1s.447-1 1-1h1.949c-.217-2.833-1.341-5.411-3.088-7.447l-1.376 1.376c-.195.195-.451.293-.707.293s-.512-.098-.707-.293c-.391-.391-.391-1.023 0-1.414l1.376-1.376c-2.036-1.747-4.615-2.871-7.447-3.088v1.949c0 .553-.447 1-1 1s-1-.447-1-1v-1.949c-2.833.217-5.411 1.341-7.447 3.088l1.376 1.376c.391.391.391 1.023 0 1.414-.195.195-.451.293-.707.293s-.512-.098-.707-.293l-1.376-1.376c-1.747 2.036-2.871 4.615-3.088 7.447zm10.081.606 3-7c.217-.509.808-.744 1.312-.525.508.218.743.806.525 1.312l-2.628 6.134 1.156.578c.494.247.694.848.447 1.342-.176.351-.528.553-.896.553-.15 0-.303-.034-.446-.105l-2-1c-.474-.237-.681-.802-.472-1.288z"/></svg>