<?xml version="1.0" encoding="UTF-8"?>
<svg xmlns="http://www.w3.org/2000/svg" id="Icons" viewBox="0 0 60 60" width="512" height="512"><path d="M40.461,11.723A.993.993,0,0,0,39.5,11H39v3.436A18.031,18.031,0,0,1,41.869,16.5Z"/><path d="M49,33a1,1,0,0,0,1-1V28a1,1,0,0,0-1-1H47.729a16.741,16.741,0,0,1,0,6Z"/><path d="M37,13.417V3a1,1,0,0,0-1-1H24a1,1,0,0,0-1,1V13.417a18,18,0,0,1,14,0Z"/><path d="M21,11h-.5a.991.991,0,0,0-.96.72L18.131,16.5A18.031,18.031,0,0,1,21,14.436Z"/><circle cx="30" cy="30" r="1"/><path d="M37,46.583a18,18,0,0,1-14,0V57a1,1,0,0,0,1,1H36a1,1,0,0,0,1-1Z"/><path d="M30,14A16,16,0,1,0,46,30,16.019,16.019,0,0,0,30,14Zm7.071,7.515L38.485,20.1A1,1,0,0,1,39.9,21.515l-1.414,1.414a1,1,0,1,1-1.414-1.414ZM29,17a1,1,0,0,1,2,0v2a1,1,0,0,1-2,0ZM19,31H17a1,1,0,0,1,0-2h2a1,1,0,0,1,0,2Zm3.929,7.485L21.515,39.9A1,1,0,0,1,20.1,38.485l1.414-1.414a1,1,0,1,1,1.414,1.414Zm0-15.556a1,1,0,0,1-1.414,0L20.1,21.515A1,1,0,0,1,21.515,20.1l1.414,1.414A1,1,0,0,1,22.929,22.929ZM31,43a1,1,0,0,1-2,0V41a1,1,0,0,1,2,0Zm1.947-12.479a3,3,0,1,1-5-2.694l-2.857-6.421a1,1,0,1,1,1.828-.812l2.861,6.429c.075-.006.148-.023.225-.023a2.989,2.989,0,0,1,2.61,1.55l3.226-.536a1,1,0,1,1,.328,1.972ZM39.9,39.9a1,1,0,0,1-1.414,0l-1.414-1.414a1,1,0,0,1,1.414-1.414L39.9,38.485A1,1,0,0,1,39.9,39.9ZM43,31H41a1,1,0,0,1,0-2h2a1,1,0,0,1,0,2Z"/><path d="M19.539,48.277A.993.993,0,0,0,20.5,49H21V45.564A18.031,18.031,0,0,1,18.131,43.5Z"/><path d="M39,45.564V49h.5a.991.991,0,0,0,.96-.72L41.869,43.5A18.031,18.031,0,0,1,39,45.564Z"/></svg>
